<svg width="120" height="117" viewBox="0 0 120 117" fill="none" xmlns="http://www.w3.org/2000/svg">
<g clip-path="url(#clip0_250_5054)">
<path d="M64.8604 1.87182e-05C64.9123 0.0398495 64.9584 0.102441 65.0166 0.116666C67.9464 0.832908 70.8777 1.54275 73.8075 2.25757C76.694 2.96172 79.5791 3.66943 82.4642 4.37642C85.3493 5.08342 88.2352 5.79113 91.1203 6.49741C94.1821 7.24708 97.2447 7.99533 100.306 8.74358C102.223 9.21159 104.141 9.67818 106.057 10.1469C106.21 10.1846 106.36 10.2372 106.51 10.2856C106.523 10.2899 106.538 10.3155 106.537 10.3297C106.534 10.351 106.525 10.3809 106.508 10.3894C106.449 10.4207 106.388 10.4577 106.324 10.4698C105.253 10.6697 104.182 10.8639 103.112 11.0637C102.912 11.1007 102.714 11.1519 102.515 11.1996C102.434 11.2195 102.369 11.3077 102.363 11.4037C102.356 11.5396 102.347 11.6761 102.347 11.812C102.346 13.9948 102.346 16.1777 102.347 18.3613C102.347 18.4971 102.358 18.633 102.364 18.7724C102.654 19.2368 103.003 19.6579 103.319 20.1017C103.437 20.2682 103.563 20.4296 103.674 20.6011C103.809 20.8095 103.818 21.0278 103.685 21.244C103.649 21.3016 103.613 21.36 103.573 21.4147C103.182 21.9453 102.791 22.4745 102.397 23.0073C102.298 23.0229 102.21 23.0478 102.122 23.0478C101.237 23.0506 100.351 23.0499 99.4654 23.0478C99.398 23.0478 99.3306 23.0343 99.2617 23.0272C99.2113 22.9802 99.1524 22.9404 99.1127 22.8871C98.733 22.3771 98.3561 21.8643 97.9785 21.3521C97.965 21.3337 97.953 21.3144 97.9409 21.2952C97.7777 21.0356 97.7883 20.7803 97.9643 20.5321C98.0829 20.3649 98.2035 20.2006 98.3249 20.0356C98.5804 19.6878 98.8345 19.3386 99.0928 18.9929C99.178 18.8791 99.2241 18.756 99.2255 18.6152C99.227 18.4786 99.2298 18.3421 99.2298 18.2062C99.2298 16.3185 99.2298 14.4316 99.2298 12.5439C99.2298 12.4528 99.2291 12.3618 99.2284 12.2707C99.227 11.8191 99.1411 11.8198 98.733 11.8874C98.1737 11.9798 97.6187 12.0972 97.0608 12.2017C95.4554 12.5026 93.8499 12.802 92.2452 13.1029C90.952 13.3447 89.6589 13.5873 88.3658 13.8298C87.942 13.9095 87.5183 13.9891 87.0953 14.0709C86.8696 14.1143 86.7958 14.2039 86.7901 14.4458C86.7851 14.6506 86.7866 14.8548 86.7866 15.0596C86.7866 18.1749 86.7866 21.2903 86.7859 24.4056C86.7859 24.6325 86.7752 24.8594 86.7688 25.0863C86.7667 25.1474 86.673 25.2001 86.6212 25.1716C86.5616 25.1389 86.4984 25.1119 86.4438 25.0721C85.1243 24.1168 83.658 23.4589 82.1207 22.9525C80.7616 22.5044 79.3697 22.185 77.9574 21.9482C77.0837 21.8017 76.2064 21.685 75.327 21.5918C74.5378 21.5079 73.7436 21.461 72.9508 21.4154C71.2048 21.3166 69.4567 21.318 67.7079 21.3187C59.3074 21.3223 50.9076 21.3223 42.507 21.3187C41.2856 21.3187 41.4573 21.4617 41.4524 20.2774C41.4438 18.3897 41.4517 16.5028 41.4481 14.6151C41.4481 14.3917 41.4914 14.1599 41.3786 13.9465C40.9768 13.7608 40.5389 13.7431 40.118 13.6605C38.4714 13.3369 36.8199 13.0346 35.1697 12.7267C33.5863 12.4315 32.0021 12.1434 30.4194 11.8461C28.6138 11.5076 26.8089 11.1619 25.0033 10.8212C24.3568 10.6996 23.7095 10.5843 23.0622 10.4655C22.9678 10.4485 22.8968 10.398 22.8613 10.2906C23.4206 10.1028 23.9998 9.989 24.5704 9.84817C28.0496 8.99039 31.5301 8.14043 35.0107 7.28905C38.2266 6.50168 41.4431 5.71644 44.6597 4.92979C48.1403 4.07769 51.6202 3.22418 55.1 2.37208C58.0739 1.64375 61.047 0.915415 64.0215 0.188504C64.1535 0.156497 64.2912 0.145116 64.4211 0.108131C64.4814 0.0910604 64.5318 0.0362931 64.5865 -0.00140381C64.6773 -0.00140381 64.7682 -0.00140381 64.859 -0.00140381L64.8604 1.87182e-05Z" fill="#082784"/>
<path d="M54.6183 82.9191C54.4196 82.9867 54.2719 83.0457 54.1193 83.087C51.5579 83.7826 48.9851 84.4341 46.3831 84.9626C45.0048 85.2428 43.6222 85.5024 42.2311 85.713C40.9075 85.9135 39.5859 86.1248 38.263 86.3282C38.1984 86.3382 38.1274 86.3318 38.0635 86.3154C38.0273 86.3062 37.9869 86.2656 37.9734 86.23C37.9507 86.1682 37.9393 86.0985 37.9379 86.0316C37.9329 85.8268 37.9336 85.6226 37.9336 85.4178C37.9336 65.3139 37.9336 45.2108 37.9336 25.1069C37.9336 24.9021 37.9329 24.6972 37.9379 24.4931C37.945 24.2136 38.0138 24.151 38.3162 24.1424C38.4525 24.1389 38.5887 24.1396 38.725 24.1396C49.0106 24.1396 59.2955 24.1396 69.5811 24.1396C69.8991 24.1396 70.2171 24.146 70.535 24.1474C71.672 24.1531 72.8005 24.2598 73.9276 24.3999C75.5082 24.5962 77.059 24.9277 78.5786 25.3999C81.8533 26.4178 84.7966 28.0338 87.3616 30.324C89.4682 32.2046 91.1687 34.4067 92.5051 36.8918C93.8061 39.3108 94.7004 41.8749 95.249 44.5657C95.6735 46.6461 95.8786 48.7479 95.863 50.8674C95.8346 54.7012 95.1702 58.4189 93.7323 61.9845C92.7301 64.4689 91.3958 66.7571 89.6747 68.8133C86.9422 72.078 83.5553 74.4032 79.5601 75.8463C77.9128 76.4416 76.2186 76.8556 74.4855 77.1145C72.8431 77.3599 71.1937 77.4843 69.5336 77.4836C64.8791 77.4822 60.2246 77.4829 55.5701 77.4836C55.3209 77.4836 55.0718 77.4957 54.8227 77.5057C54.7425 77.5085 54.6559 77.601 54.6524 77.6863C54.6438 77.8905 54.6346 78.0946 54.6339 78.2995C54.6325 79.5954 54.6339 80.892 54.6325 82.1879C54.6325 82.4141 54.624 82.6403 54.6183 82.9177V82.9191ZM54.6332 50.8184C54.6332 54.2516 54.6332 57.6842 54.6332 61.1175C54.6332 61.2995 54.6339 61.4809 54.6332 61.663C54.6318 62.136 54.6701 62.1915 55.1896 62.1886C55.3713 62.1879 55.553 62.1886 55.7347 62.1886C59.5028 62.1886 63.2708 62.1872 67.0388 62.19C67.7656 62.19 68.4902 62.1723 69.2156 62.1139C70.354 62.0229 71.4627 61.7953 72.5287 61.3934C75.2761 60.3585 77.1825 58.4666 78.2315 55.7154C78.7049 54.4736 78.9561 53.1826 79.0285 51.8597C79.0654 51.1797 79.0605 50.4955 79.0406 49.8148C79.0087 48.7194 78.8262 47.6454 78.5054 46.597C77.6119 43.6737 75.758 41.6288 72.9254 40.4794C71.5876 39.9367 70.1894 39.6672 68.755 39.5719C68.2802 39.5406 67.8025 39.542 67.3256 39.5413C63.3985 39.5392 59.4722 39.5399 55.5452 39.5399C55.3635 39.5399 55.1818 39.5384 55.0008 39.5434C54.7049 39.5512 54.6446 39.6117 54.6375 39.9055C54.6325 40.1103 54.6339 40.3144 54.6339 40.5193C54.6339 43.9525 54.6339 47.3851 54.6339 50.8184H54.6332Z" fill="#082784"/>
<path d="M120 85.5131C120 87.2642 120.001 89.0154 119.998 90.7665C119.998 90.9479 119.984 91.1285 119.972 91.3099C119.967 91.3768 119.815 91.4536 119.754 91.4173C119.599 91.3241 119.443 91.2317 119.295 91.1285C118.432 90.5289 117.504 90.0574 116.514 89.7103C115.677 89.4165 114.818 89.2102 113.939 89.0829C112.292 88.8447 110.64 88.792 108.98 88.9037C108.777 88.9172 108.572 88.93 108.369 88.9371C107.234 88.977 106.105 89.0872 104.975 89.2024C101.31 89.5751 97.7083 90.2828 94.1468 91.2153C90.4163 92.1919 86.7115 93.2616 83.0109 94.3442C78.7006 95.6052 74.3768 96.8193 70.0375 97.9766C67.1005 98.7597 64.1693 99.562 61.2324 100.344C57.8128 101.256 54.3741 102.091 50.9155 102.84C49.2746 103.196 47.628 103.523 45.9707 103.79C45.1872 103.917 44.3987 104.015 43.6108 104.118C43.026 104.195 42.4398 104.267 41.8528 104.326C41.2204 104.39 40.5873 104.458 39.9528 104.486C38.6831 104.542 37.4141 104.632 36.1415 104.626C34.5744 104.618 33.0108 104.544 31.4487 104.416C30.1576 104.311 28.8744 104.152 27.599 103.939C24.8417 103.478 22.1432 102.782 19.5072 101.844C17.2573 101.043 15.0777 100.09 13.0017 98.9062C10.0371 97.2155 7.39543 95.1237 5.15193 92.5418C3.95601 91.1662 2.88075 89.7032 1.98718 88.1114C1.20433 86.7173 0.603889 85.2499 0.227015 83.693C0.0715806 83.0493 -0.043398 82.4035 0.01764 81.7377C0.0226082 81.6872 0.0517077 81.6588 0.107068 81.6559C0.12765 81.6552 0.152491 81.6538 0.168816 81.6637C0.226305 81.6993 0.285214 81.7349 0.335605 81.7797C1.13407 82.4881 1.94389 83.1844 2.69267 83.9483C3.5692 84.8424 4.51529 85.6575 5.51603 86.4086C8.24287 88.4549 11.2692 89.8518 14.5851 90.6271C15.6689 90.8803 16.7619 91.0709 17.8691 91.1904C18.8848 91.2999 19.9018 91.3825 20.9203 91.46C22.9388 91.6129 24.9595 91.5908 26.9794 91.5539C28.159 91.5325 29.3379 91.4507 30.5132 91.3376C31.1683 91.2743 31.8241 91.221 32.4792 91.1541C32.976 91.1036 33.4729 91.0503 33.9661 90.9777C35.0655 90.8156 36.167 90.6612 37.2615 90.4656C38.5113 90.2423 39.7569 89.9905 40.9997 89.7295C42.7975 89.3511 44.591 88.9535 46.3867 88.5637C50.066 87.765 53.7439 86.9598 57.3799 85.9783C59.9208 85.2926 62.4382 84.528 64.9422 83.7214C68.1375 82.6922 71.3256 81.641 74.5245 80.6239C78.9128 79.2284 83.3281 77.9239 87.7882 76.7759C90.3589 76.1145 92.9437 75.5163 95.5528 75.0262C96.8906 74.7752 98.232 74.5497 99.5784 74.3441C100.813 74.1556 102.05 73.997 103.291 73.8647C105.304 73.6499 107.325 73.6058 109.345 73.7175C111.348 73.8285 113.303 74.2239 115.211 74.8449C115.685 74.9992 116.157 75.1642 116.626 75.3349C117.118 75.5142 117.582 75.7546 118.007 76.0633C119.092 76.8506 119.734 77.9061 119.917 79.2405C119.967 79.6018 119.995 79.9631 119.994 80.328C119.992 82.0564 119.994 83.7847 119.994 85.5131H120.001H120ZM30.2364 98.9816C32.14 98.9389 33.4118 98.9467 34.6794 98.8258C34.8377 98.8109 34.9974 98.8137 35.1557 98.8024C35.9704 98.7433 36.7852 98.6864 37.5993 98.6203C38.0514 98.584 38.5035 98.5399 38.9542 98.4858C39.9003 98.372 40.8457 98.2568 41.7896 98.1281C42.8457 97.9837 43.9025 97.8407 44.9537 97.6643C46.5414 97.3976 48.1234 97.101 49.7019 96.7788C52.5685 96.1934 55.4132 95.5149 58.2422 94.7695C62.1891 93.7289 66.1197 92.6314 70.0453 91.514C76.7183 89.6143 83.3849 87.6931 90.0558 85.7848C91.4511 85.3858 92.8472 84.9903 94.2497 84.619C95.8281 84.2008 97.4272 83.8672 99.0298 83.5564C100.098 83.3487 101.172 83.1645 102.246 82.9881C103.275 82.8196 104.308 82.6723 105.341 82.5215C106.239 82.3907 107.137 82.2683 108.036 82.1396C108.597 82.0592 109.159 81.9796 109.718 81.8878C109.895 81.8586 110.071 81.8032 110.238 81.7377C110.448 81.6559 110.552 81.4781 110.566 81.259C110.584 80.9617 110.528 80.6715 110.435 80.3892C110.411 80.3159 110.304 80.2263 110.234 80.2291C109.962 80.2391 109.689 80.2483 109.418 80.2668C108.92 80.3003 108.423 80.3401 107.925 80.3771C107.767 80.3892 107.608 80.3984 107.45 80.4119C106.591 80.4859 105.731 80.5556 104.872 80.6388C104.353 80.6893 103.833 80.7434 103.319 80.8266C102.446 80.9688 101.577 81.136 100.706 81.2925C98.2058 81.742 95.7238 82.284 93.2511 82.8636C89.1885 83.816 85.1579 84.8943 81.1435 86.0345C77.1079 87.1803 73.0901 88.3873 69.0679 89.5787C65.1977 90.7252 61.3211 91.8498 57.4076 92.8398C55.3188 93.3683 53.2243 93.8733 51.1121 94.2972C49.8005 94.5604 48.4875 94.8179 47.1716 95.0611C46.0566 95.2674 44.9381 95.4544 43.8188 95.6394C42.8344 95.8022 41.8478 95.9559 40.8606 96.1031C39.7392 96.2703 38.6171 96.4402 37.4921 96.5818C36.4793 96.7098 35.463 96.8065 34.4466 96.9075C33.1364 97.0377 31.8227 97.1181 30.5061 97.1529C28.6679 97.202 26.8304 97.2561 24.9928 97.3094C24.7884 97.3151 24.584 97.3229 24.381 97.3386C24.1546 97.3556 23.9268 97.3684 23.7039 97.409C23.4144 97.4616 23.1283 97.5327 22.8444 97.6103C22.7273 97.6423 22.6691 97.7475 22.6627 97.8713C22.6578 97.9652 22.6762 98.0577 22.7642 98.1067C23.2007 98.3514 23.6514 98.5655 24.1454 98.6665C24.8807 98.8159 25.6252 98.9048 26.3747 98.9218C27.8723 98.956 29.3705 98.9688 30.2357 98.9816H30.2364Z" fill="#082784"/>
<path d="M105.999 101.081C104.417 101.037 103.04 100.924 101.695 100.556C100.302 100.174 99.0247 99.5584 97.8557 98.7049C96.312 97.5768 95.4106 96.0526 95.0203 94.2012C94.9912 94.0618 95.0764 93.948 95.2368 93.9124C95.6356 93.8249 96.0338 93.7381 96.4334 93.6528C97.8969 93.3398 99.3575 93.0162 100.824 92.7189C101.824 92.5162 102.83 92.3448 103.845 92.2338C104.905 92.1179 105.963 91.9906 107.023 91.881C107.565 91.8256 108.109 91.7907 108.652 91.7608C109.831 91.6961 111.009 91.6371 112.188 91.583C112.736 91.5581 113.274 91.6605 113.809 91.7594C114.455 91.8789 115.093 92.0396 115.737 92.1734C116.191 92.268 116.593 92.4607 116.961 92.7409C117.305 93.0027 117.638 93.2765 117.929 93.5973C118.144 93.8342 118.323 94.0923 118.427 94.4025C118.517 94.6713 118.523 94.9323 118.435 95.2033C118.342 95.49 118.196 95.7453 118.001 95.9687C117.792 96.2076 117.577 96.4431 117.343 96.6579C115.174 98.6494 112.667 100.006 109.789 100.649C109.014 100.822 108.231 100.952 107.434 100.992C106.891 101.019 106.348 101.058 105.999 101.081Z" fill="#082784"/>
<path d="M46.2662 116.999C43.8623 116.999 41.4584 116.999 39.0538 116.999C38.8721 116.999 38.6911 117.001 38.5094 116.999C37.9679 116.99 37.9359 116.963 37.9359 116.416C37.9338 113.917 37.9345 111.419 37.9359 108.92C37.9359 108.784 37.9437 108.648 37.9636 108.513C37.9728 108.451 38.014 108.383 38.0906 108.372C38.2021 108.357 38.3149 108.338 38.4271 108.341C39.6081 108.37 40.7841 108.266 41.9609 108.195C42.6387 108.153 43.3144 108.065 43.9893 107.983C44.7544 107.891 45.5188 107.795 46.2804 107.677C47.2428 107.529 48.2045 107.37 49.1626 107.192C50.8781 106.874 52.5822 106.5 54.2728 106.069C54.3374 106.052 54.4069 106.054 54.4737 106.049C54.5333 106.044 54.6078 106.108 54.6114 106.17C54.6199 106.306 54.6319 106.442 54.6319 106.577C54.6334 109.848 54.6334 113.119 54.6319 116.39C54.6319 116.526 54.6213 116.662 54.6128 116.798C54.6078 116.871 54.5084 116.962 54.4282 116.972C54.3388 116.982 54.2487 116.994 54.1585 116.996C53.9548 117 53.7504 116.999 53.546 116.999C51.1194 116.999 48.6928 116.999 46.2662 116.999V116.999Z" fill="#082784"/>
<path d="M101.448 28.7023C100.919 29.6255 100.777 29.8197 100.416 30.1298C100.068 30.4293 99.6738 30.6533 99.2451 30.8091C98.8647 30.9471 98.4793 31.0815 98.0605 31.0865C98.0563 31.0274 98.0386 30.9805 98.0542 30.9556C98.387 30.4413 98.502 29.8645 98.5119 29.2678C98.5219 28.6774 98.507 28.0864 98.4765 27.4967C98.4552 27.0856 98.4566 26.6773 98.5233 26.2733C98.6539 25.4831 99.0017 24.8117 99.644 24.3103C99.7724 24.21 99.9108 24.1424 100.079 24.1438C100.487 24.1474 100.896 24.1452 101.304 24.1495C101.438 24.1509 101.521 24.2178 101.557 24.3337C101.57 24.3771 101.588 24.4198 101.596 24.4639C101.766 25.3686 102.138 26.1944 102.579 26.9924C103.218 28.1504 104 29.208 104.853 30.2152C104.969 30.3532 105.078 30.4982 105.181 30.6462C105.193 30.6647 105.159 30.723 105.138 30.7571C105.129 30.7721 105.098 30.782 105.077 30.7813C104.714 30.7635 104.356 30.7166 104.005 30.617C103.123 30.3667 102.408 29.873 101.848 29.1497C101.765 29.0423 101.696 28.9235 101.609 28.8182C101.569 28.7692 101.503 28.7407 101.448 28.7016V28.7023Z" fill="#082784"/>
</g>
<defs>
<clipPath id="clip0_250_5054">
<rect width="120" height="117" fill="white"/>
</clipPath>
</defs>
</svg>
