<svg width="120" height="162" viewBox="0 0 120 162" fill="none" xmlns="http://www.w3.org/2000/svg">
<g clip-path="url(#clip0_250_5518)">
<path d="M64.9661 -5.69003e-06C65.0171 0.0391416 65.0626 0.100659 65.1199 0.11464C68.0066 0.818593 70.8947 1.51625 73.7815 2.21881C76.6255 2.91088 79.4682 3.60644 82.3108 4.30131C85.1535 4.99617 87.9968 5.69173 90.8395 6.3859C93.8563 7.12271 96.8738 7.85812 99.8905 8.59353C101.779 9.05351 103.668 9.51209 105.556 9.97277C105.707 10.0098 105.855 10.0616 106.003 10.1091C106.016 10.1133 106.03 10.1385 106.029 10.1524C106.027 10.1734 106.017 10.2028 106.001 10.2112C105.943 10.2419 105.883 10.2783 105.819 10.2901C104.765 10.4866 103.709 10.6774 102.655 10.8739C102.458 10.9102 102.263 10.9605 102.067 11.0074C101.987 11.027 101.923 11.1136 101.917 11.208C101.909 11.3415 101.901 11.4758 101.901 11.6093C101.9 13.7547 101.9 15.9001 101.901 18.0462C101.901 18.1797 101.912 18.3132 101.918 18.4503C102.204 18.9067 102.547 19.3206 102.858 19.7568C102.975 19.9204 103.099 20.0791 103.209 20.2475C103.342 20.4524 103.35 20.667 103.219 20.8795C103.184 20.9361 103.149 20.9934 103.109 21.0473C102.724 21.5688 102.338 22.0889 101.951 22.6125C101.853 22.6278 101.766 22.6523 101.679 22.6523C100.807 22.6551 99.9346 22.6544 99.0619 22.6523C98.9954 22.6523 98.929 22.639 98.8612 22.632C98.8115 22.5859 98.7535 22.5468 98.7143 22.4943C98.3402 21.9931 97.9689 21.4891 97.5968 20.9858C97.5836 20.9676 97.5717 20.9487 97.5598 20.9298C97.3989 20.6747 97.4094 20.4237 97.5829 20.1797C97.6996 20.0155 97.8185 19.854 97.9381 19.6918C98.1899 19.35 98.4402 19.0067 98.6947 18.667C98.7787 18.5551 98.8241 18.4342 98.8255 18.2958C98.8269 18.1616 98.8297 18.0273 98.8297 17.8938C98.8297 16.0385 98.8297 14.1839 98.8297 12.3286C98.8297 12.2391 98.829 12.1496 98.8283 12.0602C98.8269 11.6163 98.7423 11.617 98.3402 11.6834C97.7892 11.7743 97.2423 11.8896 96.6926 11.9924C95.1108 12.2881 93.529 12.5824 91.9479 12.8781C90.6738 13.1157 89.3996 13.3541 88.1255 13.5925C87.708 13.6708 87.2906 13.7491 86.8738 13.8295C86.6514 13.8721 86.5787 13.9602 86.5731 14.1979C86.5682 14.3992 86.5696 14.5998 86.5696 14.8012C86.5696 17.8631 86.5696 20.9249 86.5689 23.9868C86.5689 24.2098 86.5584 24.4328 86.5521 24.6558C86.55 24.7159 86.4577 24.7677 86.4066 24.7397C86.3479 24.7075 86.2857 24.681 86.2318 24.6418C84.9318 23.703 83.4871 23.0564 81.9724 22.5586C80.6332 22.1182 79.2619 21.8044 77.8703 21.5716C77.0094 21.4276 76.1451 21.3129 75.2787 21.2213C74.501 21.1388 73.7185 21.0927 72.9374 21.048C71.2171 20.9508 69.4948 20.9522 67.7717 20.9529C59.4948 20.9564 51.2185 20.9564 42.9416 20.9529C41.7381 20.9529 41.9073 21.0934 41.9024 19.9295C41.8941 18.0742 41.9017 16.2196 41.8983 14.3643C41.8983 14.1448 41.9409 13.9169 41.8297 13.7071C41.4339 13.5247 41.0024 13.5072 40.5878 13.4261C38.9654 13.1081 37.3381 12.811 35.7122 12.5083C34.1521 12.2182 32.5913 11.935 31.0318 11.6428C29.2528 11.3101 27.4745 10.9703 25.6955 10.6355C25.0584 10.5159 24.4206 10.4027 23.7829 10.286C23.6899 10.2692 23.6199 10.2195 23.585 10.114C24.136 9.92943 24.7066 9.81758 25.2689 9.67917C28.6969 8.8361 32.1262 8.00073 35.5556 7.16395C38.7241 6.3901 41.8934 5.61833 45.0626 4.84517C48.492 4.0077 51.9206 3.16883 55.3493 2.33136C58.2794 1.61552 61.2087 0.899684 64.1395 0.185245C64.2696 0.153787 64.4052 0.142602 64.5332 0.106251C64.5927 0.0894739 64.6423 0.0356463 64.6962 -0.00140381C64.7857 -0.00140381 64.8752 -0.00140381 64.9647 -0.00140381L64.9661 -5.69003e-06Z" fill="#082784"/>
<path d="M-0.000277262 156.775C0.308814 156.703 0.6228 156.724 0.935387 156.724C5.02839 156.723 9.1207 156.723 13.2137 156.723C17.0829 156.723 20.9522 156.723 24.8207 156.725C25.0655 156.725 25.3109 156.741 25.5557 156.755C25.6354 156.759 25.7207 156.855 25.7284 156.935C25.7354 157.001 25.7438 157.068 25.7445 157.135C25.7459 157.693 25.7459 158.252 25.7445 158.81C25.7445 158.877 25.7354 158.944 25.7298 159.01C25.7221 159.093 25.641 159.179 25.5592 159.188C25.4927 159.197 25.4263 159.208 25.3599 159.209C25.1808 159.213 25.0018 159.213 24.8228 159.213C16.8613 159.213 8.89902 159.213 0.937485 159.212C0.624898 159.212 0.311611 159.197 -0.000976562 159.189C-0.000976562 158.384 -0.000976562 157.58 -0.000976562 156.775L-0.000277262 156.775Z" fill="#082784"/>
<path d="M120 159.189C119.776 159.197 119.553 159.212 119.33 159.212C111.367 159.214 103.404 159.214 95.4415 159.212C95.2184 159.212 94.9954 159.2 94.7723 159.189C94.6926 159.186 94.6142 159.095 94.6058 159.009C94.5974 158.92 94.5856 158.831 94.5856 158.742C94.5835 158.229 94.5835 157.714 94.5856 157.2C94.5856 157.111 94.5988 157.023 94.6079 156.934C94.6163 156.852 94.7002 156.763 94.7772 156.754C94.866 156.743 94.9541 156.73 95.0436 156.728C95.2226 156.723 95.4016 156.724 95.5807 156.724C103.432 156.724 111.283 156.724 119.134 156.726C119.423 156.726 119.716 156.688 120 156.775V159.189H120Z" fill="#082784"/>
<path d="M54.8747 81.4964C54.6789 81.5628 54.5335 81.6208 54.3831 81.6613C51.8594 82.345 49.3244 82.9854 46.7608 83.5048C45.4027 83.7802 44.0405 84.0353 42.6698 84.2423C41.3657 84.4394 40.0636 84.647 38.7601 84.8469C38.6964 84.8567 38.6265 84.8504 38.5636 84.8344C38.5279 84.8253 38.488 84.7854 38.4747 84.7505C38.4524 84.6897 38.4412 84.6212 38.4398 84.5554C38.4349 84.3541 38.4356 84.1535 38.4356 83.9522C38.4356 64.1932 38.4356 44.435 38.4356 24.6761C38.4356 24.4748 38.4349 24.2735 38.4398 24.0728C38.4468 23.7981 38.5146 23.7366 38.8125 23.7282C38.9468 23.7247 39.081 23.7254 39.2153 23.7254C49.3496 23.7254 59.4831 23.7254 69.6174 23.7254C69.9307 23.7254 70.244 23.7317 70.5573 23.7331C71.6775 23.7387 72.7894 23.8435 73.8999 23.9813C75.4573 24.1742 76.9852 24.5 78.4824 24.9641C81.709 25.9645 84.609 27.5527 87.1363 29.8037C89.2118 31.652 90.8873 33.8163 92.2041 36.2588C93.4859 38.6363 94.3671 41.1564 94.9076 43.801C95.3258 45.8457 95.5279 47.9115 95.5125 49.9946C95.4845 53.7626 94.83 57.4166 93.4132 60.9209C92.4258 63.3628 91.1111 65.6116 89.4153 67.6326C86.723 70.8413 83.3859 73.1265 79.4496 74.5449C77.8265 75.13 76.1573 75.5369 74.4496 75.7913C72.8314 76.0325 71.2062 76.1548 69.5705 76.1541C64.9845 76.1527 60.3985 76.1534 55.8125 76.1541C55.5671 76.1541 55.3216 76.166 55.0761 76.1758C54.9971 76.1786 54.9118 76.2695 54.9083 76.3534C54.8999 76.554 54.8908 76.7546 54.8901 76.956C54.8887 78.2296 54.8901 79.504 54.8887 80.7777C54.8887 81 54.8803 81.2223 54.8747 81.495V81.4964ZM54.8894 49.9464C54.8894 53.3208 54.8894 56.6944 54.8894 60.0688C54.8894 60.2477 54.8901 60.426 54.8894 60.605C54.888 61.0698 54.9258 61.1244 55.4377 61.1216C55.6167 61.1209 55.7957 61.1216 55.9747 61.1216C59.6873 61.1216 63.3999 61.1202 67.1125 61.123C67.8286 61.123 68.5426 61.1055 69.2573 61.0482C70.3789 60.9587 71.4713 60.735 72.5216 60.34C75.2286 59.3229 77.1069 57.4634 78.1405 54.7594C78.6069 53.5389 78.8545 52.2701 78.9258 50.9698C78.9622 50.3015 78.9573 49.629 78.9377 48.96C78.9062 47.8835 78.7265 46.8279 78.4104 45.7975C77.53 42.9244 75.7034 40.9146 72.9125 39.7849C71.5943 39.2515 70.2167 38.9866 68.8034 38.8929C68.3356 38.8621 67.865 38.8635 67.395 38.8628C63.5258 38.8607 59.6573 38.8614 55.788 38.8614C55.609 38.8614 55.43 38.86 55.2517 38.8649C54.9601 38.8726 54.9006 38.932 54.8936 39.2207C54.8887 39.4221 54.8901 39.6227 54.8901 39.824C54.8901 43.1984 54.8901 46.5721 54.8901 49.9464H54.8894Z" fill="#082784"/>
<path d="M119.295 84.0458C119.295 85.7669 119.295 87.488 119.293 89.2091C119.293 89.3873 119.279 89.5649 119.267 89.7432C119.263 89.8089 119.113 89.8844 119.053 89.8487C118.9 89.7572 118.746 89.6663 118.6 89.5649C117.75 88.9756 116.835 88.5121 115.86 88.171C115.035 87.8823 114.189 87.6795 113.323 87.5544C111.7 87.3202 110.072 87.2685 108.437 87.3782C108.237 87.3915 108.035 87.4041 107.835 87.4111C106.716 87.4503 105.604 87.5586 104.491 87.6719C100.88 88.0382 97.3311 88.7337 93.822 89.6502C90.1465 90.61 86.4961 91.6614 82.85 92.7254C78.6031 93.9648 74.343 95.1581 70.0675 96.2955C67.1737 97.0651 64.2856 97.8537 61.3919 98.6226C58.0227 99.5181 54.6346 100.339 51.2269 101.076C49.6101 101.425 47.9877 101.747 46.3549 102.01C45.5828 102.134 44.8059 102.23 44.0297 102.332C43.4535 102.407 42.8758 102.478 42.2975 102.536C41.6744 102.599 41.0507 102.665 40.4255 102.693C39.1744 102.748 37.9241 102.837 36.6702 102.831C35.1262 102.823 33.5856 102.75 32.0465 102.625C30.7744 102.521 29.5101 102.365 28.2535 102.156C25.5367 101.703 22.8779 101.018 20.2807 100.096C18.064 99.3091 15.9164 98.3731 13.8709 97.2091C10.95 95.5475 8.34717 93.4915 6.13668 90.9539C4.95836 89.602 3.89892 88.164 3.0185 86.5995C2.24717 85.2293 1.65556 83.7872 1.28424 82.2569C1.13109 81.6243 1.0178 80.9895 1.07794 80.3352C1.08284 80.2856 1.11151 80.2576 1.16605 80.2548C1.18633 80.2541 1.21081 80.2527 1.22689 80.2625C1.28354 80.2975 1.34158 80.3324 1.39123 80.3765C2.17794 81.0727 2.97584 81.7571 3.71361 82.5079C4.57724 83.3866 5.50941 84.1877 6.49542 84.926C9.18214 86.9371 12.164 88.3101 15.4311 89.0721C16.4989 89.3209 17.5758 89.5083 18.6668 89.6257C19.6675 89.7334 20.6695 89.8145 21.673 89.8907C23.6619 90.041 25.6528 90.0193 27.643 89.9829C28.8052 89.962 29.9668 89.8816 31.1248 89.7704C31.7702 89.7082 32.4164 89.6558 33.0619 89.5901C33.5514 89.5404 34.0409 89.488 34.5269 89.4167C35.6101 89.2573 36.6954 89.1056 37.7737 88.9134C39.0052 88.6939 40.2325 88.4464 41.457 88.1899C43.2283 87.818 44.9954 87.4272 46.7647 87.0441C50.3898 86.2591 54.0136 85.4677 57.5961 84.503C60.0996 83.8291 62.58 83.0776 65.0472 82.2849C68.1954 81.2734 71.3367 80.2402 74.4884 79.2405C78.8122 77.8689 83.1626 76.5869 87.557 75.4586C90.0898 74.8085 92.6367 74.2206 95.2073 73.7389C96.5255 73.4921 97.8472 73.2705 99.1738 73.0685C100.39 72.8833 101.609 72.7274 102.832 72.5973C104.815 72.3862 106.807 72.3429 108.797 72.4526C110.77 72.5617 112.696 72.9504 114.577 73.5606C115.044 73.7123 115.508 73.8745 115.97 74.0423C116.456 74.2185 116.912 74.4547 117.331 74.7581C118.4 75.532 119.033 76.5694 119.213 77.8808C119.262 78.236 119.29 78.5911 119.289 78.9497C119.287 80.6484 119.288 82.3471 119.288 84.0458H119.295H119.295ZM30.8521 97.2832C32.7276 97.2413 33.9807 97.249 35.2297 97.1301C35.3856 97.1154 35.543 97.1182 35.6989 97.1071C36.5017 97.049 37.3045 96.9931 38.1066 96.9281C38.5521 96.8925 38.9975 96.8491 39.4416 96.796C40.3737 96.6841 41.3052 96.5709 42.2353 96.4444C43.2758 96.3024 44.3171 96.1619 45.3528 95.9886C46.9171 95.7264 48.4758 95.4349 50.0311 95.1182C52.8556 94.5429 55.6584 93.876 58.4458 93.1434C62.3346 92.1207 66.2073 91.042 70.0751 89.9438C76.65 88.0766 83.2185 86.1884 89.7912 84.3129C91.1661 83.9207 92.5416 83.532 93.9234 83.1671C95.4786 82.7561 97.0542 82.4282 98.6332 82.1227C99.6856 81.9186 100.744 81.7375 101.802 81.5642C102.816 81.3985 103.834 81.2538 104.851 81.1056C105.736 80.977 106.621 80.8567 107.507 80.7302C108.06 80.6512 108.613 80.5729 109.164 80.4827C109.338 80.4541 109.512 80.3995 109.677 80.3352C109.884 80.2548 109.986 80.0801 110 79.8648C110.018 79.5726 109.962 79.2873 109.871 79.0098C109.847 78.9378 109.742 78.8497 109.672 78.8525C109.405 78.8623 109.136 78.8714 108.869 78.8896C108.378 78.9224 107.888 78.9616 107.398 78.9979C107.242 79.0098 107.085 79.0189 106.929 79.0322C106.083 79.1049 105.236 79.1734 104.39 79.2552C103.878 79.3048 103.366 79.3579 102.859 79.4397C101.999 79.5795 101.143 79.7438 100.285 79.8976C97.8213 80.3394 95.3758 80.8721 92.9395 81.4418C88.9367 82.3779 84.9654 83.4377 81.0101 84.5582C77.0339 85.6844 73.0751 86.8707 69.1122 88.0417C65.2989 89.1685 61.4793 90.2738 57.6234 91.2468C55.5654 91.7662 53.5017 92.2626 51.4206 92.6792C50.1283 92.9379 48.8346 93.1909 47.5381 93.43C46.4395 93.6327 45.3374 93.8166 44.2346 93.9983C43.2647 94.1584 42.2926 94.3094 41.3199 94.4541C40.215 94.6184 39.1094 94.7855 38.001 94.9246C37.0031 95.0504 36.0017 95.1455 35.0003 95.2448C33.7094 95.3727 32.415 95.4517 31.1178 95.4859C29.3066 95.5342 27.4961 95.5873 25.6856 95.6397C25.4842 95.6453 25.2828 95.653 25.0828 95.6684C24.8598 95.6852 24.6353 95.6978 24.4157 95.7376C24.1304 95.7893 23.8486 95.8592 23.5688 95.9354C23.4535 95.9669 23.3961 96.0704 23.3898 96.192C23.3849 96.2843 23.4031 96.3751 23.4898 96.4234C23.9199 96.6639 24.364 96.8743 24.8507 96.9735C25.5751 97.1203 26.3087 97.2077 27.0472 97.2245C28.5227 97.2581 29.9989 97.2706 30.8514 97.2832H30.8521Z" fill="#082784"/>
<path d="M116.01 140.906C116.024 142.303 115.756 143.716 115.164 145.067C114.268 147.115 112.224 149.53 109.287 150.522C108.523 150.78 107.74 150.94 106.936 151.029C105.996 151.133 105.06 151.11 104.128 150.989C102.99 150.841 101.907 150.508 100.882 149.982C98.8489 148.938 96.7698 146.795 95.9251 144.154C95.6314 143.234 95.4566 142.295 95.4321 141.328C95.4083 140.41 95.4468 139.499 95.6363 138.597C96.0328 136.711 96.9188 135.086 98.2454 133.697C99.6922 132.18 101.445 131.213 103.504 130.814C104.051 130.708 104.605 130.627 105.167 130.627C105.926 130.628 106.682 130.625 107.44 130.736C109.325 131.012 110.996 131.748 112.436 132.993C113.957 134.31 115.052 135.911 115.617 137.857C115.899 138.83 116.017 139.822 116.011 140.906H116.01ZM105.659 146.863C106.401 146.893 107.128 146.779 107.823 146.512C109.442 145.89 110.515 144.723 111.15 143.13C111.324 142.693 111.419 142.233 111.482 141.768C111.636 140.64 111.55 139.529 111.124 138.475C110.392 136.663 109.093 135.458 107.164 134.994C106.419 134.815 105.664 134.793 104.901 134.882C104.017 134.986 103.202 135.262 102.469 135.763C101.341 136.533 100.573 137.576 100.159 138.878C100.045 139.24 99.9817 139.615 99.9314 139.992C99.7873 141.076 99.8887 142.14 100.286 143.153C100.968 144.895 102.177 146.106 104.001 146.644C104.54 146.802 105.092 146.882 105.66 146.863L105.659 146.863Z" fill="#082784"/>
<path d="M9.03355 131.044C10.286 131.044 11.5384 131.038 12.7909 131.046C13.8489 131.052 14.8825 131.216 15.8846 131.564C16.7161 131.852 17.4762 132.271 18.1608 132.823C19.1902 133.654 19.8524 134.714 20.1349 136.006C20.3769 137.114 20.3769 138.224 20.1335 139.33C19.8496 140.62 19.186 141.683 18.1664 142.52C17.2706 143.255 16.251 143.748 15.1266 144.022C14.3636 144.207 13.5895 144.308 12.8021 144.3C12.1762 144.294 11.5496 144.298 10.9231 144.301C10.8119 144.301 10.7 144.312 10.5909 144.333C10.5545 144.34 10.5168 144.384 10.4965 144.421C10.4762 144.459 10.4685 144.507 10.4678 144.552C10.465 145.691 10.465 146.83 10.4608 147.971C10.4608 148.138 10.5266 148.272 10.6301 148.395C10.9881 148.823 11.3461 149.253 11.7028 149.683C11.8308 149.838 11.9587 149.994 12.079 150.155C12.1175 150.207 12.1356 150.275 12.1552 150.338C12.1979 150.473 12.1007 150.621 11.9622 150.628C11.7615 150.638 11.5601 150.645 11.3594 150.645C9.6818 150.646 8.00488 150.645 6.32725 150.645C5.81257 150.645 5.29858 150.647 4.7839 150.642C4.67341 150.642 4.56152 150.628 4.45243 150.607C4.3818 150.594 4.33774 150.531 4.33844 150.463C4.33844 150.377 4.33984 150.276 4.3825 150.208C4.47621 150.057 4.59229 149.919 4.70628 149.781C5.07621 149.333 5.44544 148.884 5.82306 148.442C5.97621 148.263 6.05523 148.068 6.03844 147.831C6.02935 147.697 6.03704 147.563 6.03704 147.429C6.03704 143.049 6.03914 138.669 6.03495 134.289C6.03425 133.357 6.13145 133.658 5.52865 132.916C5.17621 132.482 4.81607 132.054 4.45872 131.625C4.36921 131.518 4.32166 131.399 4.33005 131.257C4.33565 131.159 4.39579 131.064 4.47271 131.06C4.65103 131.053 4.83005 131.044 5.00837 131.044C6.35033 131.043 7.69229 131.044 9.03425 131.044H9.03355ZM10.4601 137.688C10.4601 138.426 10.4587 139.162 10.4615 139.9C10.4615 140.033 10.4727 140.168 10.4916 140.3C10.4965 140.336 10.5419 140.381 10.579 140.395C10.6405 140.417 10.7098 140.426 10.7762 140.426C11.4468 140.427 12.1175 140.427 12.7881 140.424C13.172 140.421 13.5405 140.33 13.9049 140.218C14.2496 140.112 14.5664 139.949 14.8559 139.734C15.3245 139.387 15.6147 138.93 15.737 138.356C15.837 137.888 15.8328 137.428 15.7301 136.962C15.5986 136.365 15.2853 135.896 14.7797 135.556C14.5377 135.393 14.2776 135.265 14.0007 135.172C13.5531 135.021 13.0951 134.923 12.6217 134.918C12.0182 134.911 11.4147 134.914 10.8105 134.915C10.744 134.915 10.6699 134.915 10.6133 134.942C10.5608 134.968 10.4986 135.025 10.4888 135.078C10.4643 135.208 10.4601 135.344 10.4601 135.477C10.458 136.215 10.4587 136.951 10.4587 137.689L10.4601 137.688Z" fill="#082784"/>
<path d="M33.7991 148.514C33.7991 148.461 33.8053 148.436 33.7984 148.416C33.5361 147.681 33.2732 146.946 33.0081 146.211C32.9578 146.071 32.8487 146 32.7032 145.991C32.5697 145.982 32.4354 145.98 32.3011 145.98C30.5578 145.98 28.8137 145.979 27.0704 145.981C26.8935 145.981 26.7172 145.999 26.5907 146.007C26.4305 146.087 26.3942 146.199 26.355 146.3C26.1137 146.925 25.8823 147.553 25.6389 148.177C25.5571 148.386 25.5704 148.555 25.7263 148.731C26.0522 149.098 26.3627 149.48 26.6774 149.857C26.7634 149.96 26.8557 150.06 26.9207 150.175C26.962 150.247 26.9648 150.345 26.9732 150.431C26.9809 150.512 26.8942 150.617 26.8235 150.621C26.6676 150.631 26.5116 150.644 26.3557 150.644C24.2543 150.645 22.1529 150.645 20.0515 150.644C19.8956 150.644 19.7396 150.631 19.5837 150.619C19.5144 150.614 19.4277 150.505 19.4361 150.423C19.4445 150.336 19.4529 150.241 19.4935 150.168C19.5466 150.073 19.6298 149.993 19.7046 149.911C20.0487 149.529 20.3893 149.144 20.7417 148.77C20.99 148.506 21.1816 148.216 21.3263 147.882C22.0018 146.326 22.6893 144.775 23.3732 143.222C25.1284 139.238 26.8844 135.255 28.641 131.271C28.7298 131.069 28.8326 130.874 28.9326 130.667C29.4613 130.621 29.9739 130.64 30.4865 130.651C30.583 130.654 30.6592 130.702 30.7011 130.786C30.7809 130.946 30.8557 131.108 30.9277 131.271C33.3193 136.682 35.7158 142.092 38.0963 147.507C38.3606 148.109 38.6767 148.656 39.1452 149.12C39.462 149.434 39.748 149.779 40.0466 150.112C40.1249 150.199 40.148 150.307 40.1424 150.423C40.1382 150.509 40.0655 150.617 39.9977 150.621C39.8641 150.631 39.7305 150.643 39.5963 150.644C37.383 150.645 35.1697 150.645 32.9571 150.644C32.8235 150.644 32.69 150.63 32.5564 150.619C32.4886 150.613 32.4004 150.497 32.413 150.42C32.4277 150.334 32.4389 150.239 32.4837 150.168C32.5669 150.037 32.6704 149.918 32.7697 149.798C33.0389 149.47 33.3123 149.145 33.5809 148.816C33.6648 148.713 33.7375 148.602 33.7997 148.515L33.7991 148.514ZM29.669 142.833C29.669 142.836 29.669 142.84 29.669 142.844C30.2277 142.844 30.7865 142.845 31.3445 142.842C31.4319 142.842 31.5221 142.828 31.606 142.804C31.6354 142.795 31.6732 142.74 31.6711 142.708C31.6669 142.621 31.6557 142.531 31.6263 142.449C31.0578 140.876 30.4865 139.303 29.9137 137.731C29.8914 137.669 29.8522 137.613 29.8172 137.555C29.806 137.538 29.7816 137.515 29.7662 137.517C29.7312 137.522 29.683 137.531 29.6676 137.556C29.6207 137.631 29.5802 137.712 29.5487 137.795C28.9683 139.341 28.3893 140.886 27.8109 142.433C27.7879 142.495 27.7732 142.561 27.7557 142.626C27.7501 142.647 27.7501 142.67 27.7459 142.691C27.7354 142.744 27.8018 142.832 27.8592 142.832C28.462 142.833 29.0655 142.832 29.6683 142.832L29.669 142.833Z" fill="#082784"/>
<path d="M70.7258 148.503C70.7258 148.46 70.7321 148.435 70.7251 148.416C70.4621 147.68 70.1978 146.946 69.9349 146.21C69.8831 146.065 69.7726 146.006 69.63 145.99C69.5635 145.983 69.4957 145.981 69.4293 145.981C67.551 145.981 65.6726 145.98 63.7943 145.984C63.6642 145.984 63.5349 146.023 63.395 146.045C63.3139 146.245 63.2356 146.428 63.1642 146.615C62.9572 147.158 62.753 147.701 62.5482 148.244C62.488 148.403 62.5083 148.548 62.6209 148.682C62.9523 149.074 63.2817 149.469 63.6104 149.864C63.6957 149.967 63.7838 150.069 63.8544 150.182C63.9153 150.279 63.9209 150.394 63.8782 150.503C63.8642 150.54 63.8307 150.576 63.7964 150.596C63.76 150.618 63.7132 150.628 63.6698 150.632C63.581 150.64 63.4915 150.643 63.402 150.643C61.2104 150.643 59.0195 150.643 56.8279 150.643C56.7607 150.643 56.6936 150.639 56.6265 150.638C56.3551 150.632 56.3083 150.423 56.395 150.212C56.4279 150.132 56.4908 150.062 56.5502 149.996C56.8943 149.615 57.2314 149.226 57.5901 148.858C57.9076 148.533 58.1293 148.159 58.3118 147.743C60.702 142.305 63.1013 136.872 65.4992 131.437C65.6069 131.192 65.7188 130.949 65.8272 130.71C65.9062 130.686 65.9691 130.651 66.0314 130.65C66.5426 130.647 67.0558 130.608 67.581 130.679C67.688 130.909 67.7957 131.129 67.8943 131.352C70.3139 136.825 72.7342 142.299 75.1468 147.776C75.3293 148.191 75.5524 148.565 75.8691 148.891C76.2272 149.259 76.5635 149.648 76.9055 150.031C76.9635 150.096 77.0125 150.174 77.0489 150.253C77.1349 150.438 77.0237 150.623 76.8244 150.633C76.6908 150.64 76.5565 150.643 76.4223 150.643C74.2754 150.643 72.1293 150.644 69.9824 150.642C69.8265 150.642 69.6705 150.629 69.5146 150.619C69.4454 150.615 69.3642 150.505 69.3593 150.425C69.3517 150.309 69.3747 150.199 69.4468 150.11C69.7279 149.763 70.0174 149.422 70.2971 149.074C70.4496 148.884 70.6314 148.713 70.7265 148.502L70.7258 148.503ZM66.6118 137.508C66.5663 137.606 66.5125 137.704 66.474 137.807C65.8936 139.353 65.3146 140.899 64.737 142.447C64.7062 142.528 64.6887 142.618 64.6803 142.705C64.6775 142.737 64.7104 142.785 64.7412 142.806C64.7747 142.829 64.8244 142.839 64.867 142.839C66.0516 142.84 67.2356 142.841 68.4202 142.839C68.4628 142.839 68.5125 142.83 68.5461 142.807C68.5768 142.786 68.6125 142.737 68.6083 142.707C68.5922 142.598 68.5698 142.488 68.5321 142.385C67.9922 140.895 67.4503 139.407 66.9062 137.919C66.8607 137.794 66.8027 137.674 66.7398 137.557C66.7258 137.532 66.6684 137.529 66.6111 137.508H66.6118Z" fill="#082784"/>
<path d="M41.767 149.332C41.7593 149.192 41.7453 149.058 41.7453 148.926C41.7439 147.653 41.7439 146.379 41.7446 145.106C41.7446 145.016 41.7474 144.928 41.7523 144.838C41.7621 144.651 41.9824 144.542 42.1411 144.651C42.2327 144.713 42.3194 144.785 42.3998 144.861C43.3061 145.718 44.3614 146.331 45.5187 146.781C46.0845 147.002 46.6698 147.143 47.2712 147.21C47.9481 147.286 48.6096 147.191 49.2537 146.98C49.5313 146.889 49.7852 146.747 50.0138 146.563C50.3852 146.263 50.5649 145.87 50.5824 145.398C50.5922 145.126 50.5439 144.86 50.4502 144.61C50.397 144.468 50.3019 144.334 50.1998 144.219C49.7824 143.745 49.2977 143.356 48.7215 143.084C48.0551 142.77 47.3922 142.448 46.7278 142.129C46.2852 141.916 45.8404 141.706 45.4005 141.488C44.8796 141.228 44.3775 140.935 43.9201 140.573C43.6579 140.366 43.4047 140.145 43.1621 139.915C42.3991 139.192 42.0019 138.289 41.8747 137.258C41.8089 136.725 41.7656 136.195 41.8397 135.656C41.9362 134.956 42.1642 134.309 42.5495 133.723C43.6068 132.116 45.0551 131.082 46.9747 130.746C47.9977 130.568 49.0194 130.594 50.0453 130.719C51.1411 130.851 52.1873 131.156 53.1998 131.585C53.4047 131.671 53.6033 131.775 53.8019 131.877C53.8845 131.919 53.9341 131.996 53.9411 132.092C53.9488 132.203 53.9544 132.315 53.9551 132.426C53.9621 133.655 53.9684 134.883 53.9733 136.112C53.9733 136.223 53.9663 136.335 53.9614 136.446C53.953 136.621 53.7537 136.666 53.597 136.59C53.5194 136.552 53.453 136.484 53.3914 136.421C52.4327 135.439 51.2383 134.915 49.911 134.687C49.2278 134.57 48.5313 134.565 47.8502 134.767C47.4334 134.89 47.0705 135.097 46.7733 135.415C46.5348 135.671 46.4152 135.969 46.4124 136.324C46.4089 136.746 46.5229 137.109 46.8089 137.429C47.0047 137.648 47.2089 137.852 47.46 138.001C47.8439 138.228 48.2257 138.463 48.6229 138.665C49.5383 139.132 50.4621 139.583 51.3845 140.034C51.9474 140.31 52.4956 140.609 53.0033 140.978C53.3845 141.255 53.7341 141.566 54.0509 141.915C54.5117 142.421 54.8229 143.011 54.988 143.671C55.2306 144.642 55.2362 145.619 54.9803 146.588C54.753 147.448 54.3103 148.191 53.6845 148.823C52.7502 149.768 51.6271 150.389 50.3509 150.733C49.132 151.06 47.8915 151.16 46.6306 151.051C45.6894 150.97 44.774 150.789 43.888 150.463C43.2565 150.232 42.6565 149.936 42.0908 149.571C41.9796 149.499 41.8775 149.413 41.7663 149.331L41.767 149.332Z" fill="#082784"/>
<path d="M105.499 99.3461C103.939 99.3035 102.583 99.1923 101.258 98.8302C99.8855 98.4548 98.6268 97.8501 97.4751 97.0113C95.9541 95.9026 95.066 94.4045 94.6813 92.5848C94.6527 92.4478 94.7366 92.336 94.8946 92.301C95.2876 92.215 95.6799 92.1297 96.0736 92.0459C97.5156 91.7383 98.9548 91.4202 100.4 91.128C101.385 90.9288 102.376 90.7603 103.376 90.6512C104.421 90.5373 105.463 90.4122 106.508 90.3045C107.041 90.25 107.577 90.2157 108.113 90.1864C109.274 90.1227 110.434 90.0647 111.596 90.0116C112.136 89.9871 112.667 90.0878 113.193 90.185C113.83 90.3024 114.459 90.4604 115.093 90.5918C115.54 90.6848 115.937 90.8742 116.299 91.1497C116.638 91.4069 116.966 91.6761 117.253 91.9913C117.465 92.2241 117.641 92.4779 117.744 92.7827C117.832 93.0469 117.838 93.3035 117.751 93.5698C117.66 93.8515 117.516 94.1025 117.324 94.322C117.118 94.5569 116.906 94.7883 116.676 94.9994C114.539 96.9567 112.069 98.2898 109.232 98.9218C108.469 99.0917 107.697 99.2203 106.913 99.2587C106.377 99.2853 105.842 99.3245 105.499 99.3461Z" fill="#082784"/>
<path d="M46.6446 114.992C44.276 114.992 41.9075 114.992 39.5383 114.992C39.3592 114.992 39.1809 114.994 39.0019 114.991C38.4683 114.983 38.4369 114.956 38.4369 114.419C38.4348 111.963 38.4355 109.507 38.4369 107.051C38.4369 106.918 38.4446 106.783 38.4641 106.651C38.4732 106.59 38.5138 106.523 38.5893 106.513C38.6991 106.498 38.8103 106.479 38.9208 106.482C40.0844 106.51 41.2432 106.409 42.4026 106.338C43.0704 106.298 43.7362 106.211 44.4012 106.131C45.1551 106.04 45.9082 105.945 46.6585 105.83C47.6068 105.684 48.5544 105.528 49.4984 105.353C51.1886 105.04 52.8676 104.672 54.5334 104.249C54.597 104.233 54.6655 104.235 54.7313 104.23C54.79 104.225 54.8634 104.287 54.8669 104.349C54.8753 104.482 54.8872 104.616 54.8872 104.748C54.8886 107.963 54.8886 111.178 54.8872 114.393C54.8872 114.527 54.8767 114.66 54.8683 114.794C54.8634 114.865 54.7655 114.955 54.6865 114.965C54.5984 114.974 54.5096 114.986 54.4208 114.988C54.2201 114.992 54.0187 114.991 53.8173 114.991C51.4264 114.991 49.0355 114.991 46.6446 114.991V114.992Z" fill="#082784"/>
<path d="M80.2332 133.495C79.8318 133.01 79.4199 132.512 79.0073 132.012C78.8933 131.875 78.7793 131.737 78.6667 131.599C78.5423 131.446 78.5241 131.278 78.6038 131.1C78.7751 131.014 78.9569 131.045 79.1339 131.044C80.0499 131.041 80.9667 131.043 81.8828 131.043C83.1569 131.043 84.4311 131.043 85.7052 131.043C85.8835 131.043 86.0625 131.05 86.2409 131.057C86.3136 131.06 86.394 131.165 86.3856 131.255C86.3772 131.341 86.3737 131.44 86.3311 131.511C86.2507 131.643 86.1465 131.762 86.0465 131.882C85.6478 132.365 85.2485 132.846 84.8478 133.326C84.7437 133.45 84.6835 133.587 84.6884 133.753C84.6933 133.909 84.6877 134.066 84.6877 134.222C84.6877 138.13 84.6863 142.038 84.6884 145.946C84.6884 146.842 84.5961 146.791 85.5059 146.791C87.0038 146.793 88.501 146.791 89.9989 146.791C90.066 146.791 90.1339 146.785 90.2003 146.792C90.5625 146.83 90.8311 146.708 91.0737 146.419C91.5751 145.82 92.1143 145.252 92.6395 144.672C92.729 144.573 92.8185 144.471 92.9206 144.387C93.0108 144.312 93.129 144.312 93.2388 144.343C93.2765 144.354 93.308 144.394 93.3374 144.424C93.352 144.439 93.3604 144.464 93.3625 144.486C93.3702 144.575 93.3786 144.663 93.3786 144.753C93.3793 146.562 93.3793 148.37 93.3786 150.18C93.3786 150.268 93.3688 150.358 93.3604 150.447C93.3541 150.515 93.252 150.613 93.1807 150.622C93.1143 150.63 93.0479 150.64 92.9814 150.641C92.8248 150.645 92.6688 150.645 92.5122 150.645C88.1311 150.645 83.7506 150.645 79.3695 150.644C79.1465 150.644 78.9234 150.629 78.701 150.617C78.629 150.614 78.5499 150.505 78.5625 150.419C78.5758 150.334 78.587 150.238 78.6332 150.169C78.7311 150.021 78.8486 149.885 78.9625 149.747C79.3185 149.317 79.6702 148.883 80.0374 148.461C80.2108 148.262 80.2884 148.048 80.2674 147.787C80.2562 147.655 80.266 147.52 80.266 147.385C80.266 143.031 80.266 138.676 80.2653 134.321C80.2653 134.054 80.2835 133.786 80.2346 133.495H80.2332Z" fill="#082784"/>
<path d="M75.8281 154.084C76.5253 154.077 77.1729 154.073 77.8211 154.087C77.8855 154.089 77.9666 154.099 77.9736 154.181C77.9792 154.241 77.9666 154.316 77.9337 154.366C77.8351 154.514 77.7302 154.661 77.6127 154.795C77.4407 154.991 77.3743 155.204 77.3918 155.47C77.5085 157.231 77.612 158.993 77.7204 160.754C77.7232 160.798 77.7379 160.842 77.7519 160.909C77.9148 161.121 78.0932 161.35 78.268 161.581C78.3386 161.675 78.2652 161.809 78.1414 161.818C78.0743 161.822 78.0072 161.827 77.9407 161.827C77.7393 161.828 77.5379 161.827 77.3372 161.827C76.8449 161.827 76.3533 161.829 75.861 161.825C75.7505 161.825 75.6393 161.806 75.5288 161.794C75.4876 161.79 75.4344 161.662 75.461 161.626C75.5645 161.482 75.6596 161.332 75.7757 161.198C75.9295 161.021 76.0106 160.83 75.9946 160.59C75.9687 160.211 75.9659 159.831 75.947 159.452C75.9127 158.761 75.875 158.068 75.8365 157.377C75.8316 157.288 75.8169 157.2 75.8023 157.113C75.7995 157.096 75.7785 157.071 75.7631 157.07C75.7218 157.065 75.6603 157.055 75.6421 157.076C75.5568 157.177 75.4792 157.286 75.4071 157.397C74.9197 158.147 74.4358 158.898 73.9477 159.646C73.8631 159.776 73.7659 159.899 73.668 160.02C73.6071 160.096 73.4281 160.09 73.3638 160.011C73.2799 159.908 73.1967 159.803 73.1239 159.691C72.6218 158.925 72.1239 158.156 71.6225 157.39C71.5498 157.279 71.4652 157.175 71.382 157.07C71.3722 157.058 71.3379 157.059 71.3176 157.065C71.3002 157.069 71.2771 157.086 71.2722 157.101C71.2526 157.163 71.2267 157.228 71.2246 157.292C71.1883 158.408 71.1554 159.525 71.1204 160.641C71.1155 160.805 71.1561 160.949 71.2631 161.074C71.3211 161.142 71.3834 161.209 71.4302 161.284C71.5183 161.426 71.7442 161.538 71.6344 161.731C71.5316 161.911 71.3064 161.819 71.1379 161.822C70.5344 161.834 69.9302 161.827 69.3267 161.827C69.2148 161.827 69.1016 161.832 68.9925 161.813C68.9344 161.804 68.8568 161.758 68.8393 161.71C68.8211 161.66 68.8526 161.58 68.8862 161.528C68.9463 161.435 69.0267 161.355 69.0953 161.267C69.1911 161.144 69.2848 161.019 69.3834 160.888C69.4288 160.266 69.4806 159.643 69.519 159.02C69.589 157.883 69.6519 156.745 69.7176 155.608C69.719 155.585 69.7176 155.562 69.7232 155.541C69.7953 155.225 69.6715 154.981 69.4568 154.758C69.3183 154.614 69.2016 154.449 69.082 154.287C69.0617 154.26 69.0638 154.2 69.0799 154.166C69.096 154.134 69.1414 154.099 69.1771 154.096C69.6232 154.056 70.9183 154.075 71.3449 154.127C71.4477 154.275 71.5652 154.436 71.6736 154.603C72.1715 155.372 72.6666 156.143 73.1638 156.912C73.2484 157.044 73.3393 157.171 73.4288 157.299C73.4729 157.361 73.6106 157.351 73.661 157.279C73.7638 157.133 73.8652 156.986 73.9652 156.837C74.4512 156.114 74.9351 155.39 75.4218 154.666C75.5456 154.482 75.6764 154.303 75.8309 154.082L75.8281 154.084Z" fill="#082784"/>
<path d="M54.218 160.846C54.2236 160.684 54.2348 160.529 54.2348 160.374C54.2362 158.767 54.2355 157.16 54.2348 155.553C54.2348 155.464 54.2306 155.374 54.2334 155.286C54.2397 155.121 54.1873 154.982 54.0838 154.855C53.9299 154.665 53.7831 154.469 53.6348 154.274C53.5992 154.227 53.6397 154.12 53.6908 154.11C53.7124 154.106 53.7327 154.094 53.7544 154.091C53.7985 154.085 53.8432 154.082 53.888 154.082C54.8929 154.082 55.8985 154.082 56.9034 154.084C57.4453 154.084 57.9684 154.192 58.4747 154.379C58.8327 154.512 59.1642 154.694 59.4712 154.921C60.2859 155.523 60.7635 156.331 60.8971 157.33C60.9649 157.839 60.9509 158.35 60.8397 158.861C60.6551 159.705 60.2124 160.378 59.5404 160.909C59.0041 161.332 58.3908 161.596 57.7229 161.718C57.3726 161.781 57.0138 161.818 56.6579 161.824C55.7649 161.839 54.8712 161.829 53.9775 161.829C53.9103 161.829 53.8397 161.836 53.7775 161.817C53.7187 161.799 53.66 161.758 53.6201 161.711C53.6027 161.691 53.6215 161.623 53.6439 161.59C53.7194 161.479 53.8027 161.374 53.8852 161.269C53.9943 161.128 54.1048 160.99 54.2166 160.847L54.218 160.846ZM55.9719 157.935C55.9719 158.449 55.9712 158.963 55.9719 159.476C55.974 160.383 55.9034 160.294 56.8117 160.286C56.9453 160.285 57.081 160.281 57.2131 160.26C58.174 160.109 58.9551 159.53 59.1579 158.414C59.2048 158.154 59.211 157.876 59.1761 157.614C59.0628 156.751 58.6159 156.12 57.7908 155.793C57.2614 155.583 56.7082 155.53 56.1453 155.604C56.0936 155.611 56.0229 155.676 56.0089 155.727C55.9796 155.833 55.9747 155.948 55.974 156.058C55.9712 156.684 55.9726 157.309 55.9726 157.934L55.9719 157.935Z" fill="#082784"/>
<path d="M62.6803 160.827V160.331C62.6803 158.746 62.6803 157.161 62.6803 155.577C62.6803 155.51 62.6747 155.443 62.6803 155.376C62.702 155.137 62.6048 154.948 62.4558 154.769C62.3139 154.599 62.1397 154.449 62.0656 154.232C62.0551 154.202 62.0852 154.128 62.1097 154.12C62.1936 154.095 62.2838 154.082 62.3719 154.081C62.8635 154.077 63.3544 154.078 63.846 154.078C64.8509 154.078 65.8565 154.077 66.8614 154.08C67.0167 154.08 67.1726 154.096 67.3279 154.107C67.4048 154.113 67.4363 154.176 67.4705 154.231C67.4817 154.249 67.4824 154.275 67.4824 154.296C67.4824 154.876 67.4824 155.455 67.481 156.035C67.481 156.122 67.3593 156.189 67.2845 156.142C67.0775 156.012 66.8698 155.882 66.6684 155.742C66.4964 155.622 66.3146 155.568 66.1041 155.572C65.6349 155.581 65.1663 155.576 64.6971 155.581C64.4733 155.583 64.4244 155.704 64.4223 155.88C64.4174 156.259 64.4202 156.638 64.4251 157.018C64.4272 157.165 64.5293 157.265 64.6817 157.267C65.0838 157.274 65.4859 157.273 65.888 157.276C66.0712 157.277 66.237 157.212 66.4034 157.145C66.5048 157.105 66.6125 157.077 66.7195 157.058C66.7502 157.053 66.7922 157.093 66.8244 157.117C66.8405 157.13 66.8551 157.156 66.8551 157.175C66.8572 157.665 66.8593 158.155 66.8579 158.646C66.8579 158.719 66.7321 158.802 66.6642 158.782C66.6216 158.769 66.5733 158.766 66.537 158.744C66.2167 158.552 65.867 158.517 65.5034 158.536C65.2139 158.551 64.9237 158.547 64.6335 158.557C64.5265 158.561 64.4272 158.666 64.4265 158.779C64.423 159.203 64.4223 159.627 64.4265 160.051C64.4279 160.199 64.5216 160.28 64.6901 160.285C64.9356 160.291 65.1817 160.292 65.4272 160.292C65.7845 160.292 66.1418 160.289 66.4992 160.289C66.6391 160.289 66.7593 160.245 66.8621 160.147C67.023 159.992 67.1873 159.841 67.3551 159.695C67.3859 159.668 67.4586 159.641 67.4747 159.655C67.5209 159.696 67.5775 159.758 67.5782 159.813C67.5859 160.394 67.5838 160.973 67.5831 161.553C67.5831 161.575 67.574 161.597 67.5705 161.618C67.56 161.697 67.4726 161.794 67.4006 161.802C67.3125 161.812 67.2237 161.826 67.1349 161.826C65.5488 161.827 63.9628 161.827 62.3768 161.825C62.2894 161.825 62.1999 161.807 62.1167 161.781C62.0894 161.773 62.0586 161.706 62.0649 161.674C62.0775 161.611 62.1062 161.546 62.1453 161.496C62.309 161.284 62.4789 161.077 62.6796 160.828L62.6803 160.827Z" fill="#082784"/>
<path d="M43.0856 154.185C43.9023 153.853 43.8912 153.816 43.8863 154.645C43.8828 155.225 43.8821 155.804 43.8758 156.384C43.8758 156.42 43.8436 156.47 43.8128 156.486C43.7807 156.503 43.7177 156.503 43.6919 156.482C43.5877 156.399 43.494 156.303 43.3947 156.214C43.0716 155.927 42.6996 155.732 42.2793 155.63C41.8604 155.529 41.4345 155.511 41.0198 155.623C40.087 155.873 39.5359 156.504 39.3457 157.434C39.2464 157.918 39.2716 158.413 39.4646 158.882C39.7142 159.487 40.1282 159.929 40.7443 160.178C40.9345 160.254 41.1303 160.287 41.3296 160.306C42.1254 160.384 42.8331 160.183 43.4289 159.634C43.5261 159.544 43.6289 159.459 43.7366 159.383C43.7576 159.368 43.8163 159.399 43.8527 159.418C43.866 159.425 43.8702 159.458 43.8702 159.479C43.8716 160.259 43.8737 161.04 43.8723 161.82C43.8723 161.914 43.773 161.973 43.6835 161.936C43.5807 161.893 43.4758 161.853 43.3786 161.8C43.21 161.707 43.0471 161.704 42.8653 161.768C42.1086 162.033 41.3359 162.064 40.5562 161.895C39.1268 161.586 38.1737 160.724 37.6961 159.355C37.3541 158.373 37.3723 157.373 37.738 156.403C38.2114 155.146 39.1212 154.333 40.4247 154.013C41.1681 153.83 41.931 153.848 42.6772 154.066C42.8051 154.104 42.9331 154.141 43.0856 154.185V154.185Z" fill="#082784"/>
<path d="M31.6021 160.943C31.658 161.149 31.8301 161.272 31.9433 161.435C31.9811 161.49 32.0182 161.546 32.0538 161.602C32.0944 161.666 32.0245 161.806 31.9468 161.806C31.0755 161.809 30.2042 161.811 29.3336 161.808C29.2972 161.808 29.2503 161.772 29.2266 161.74C29.1811 161.678 29.2126 161.617 29.251 161.562C29.2636 161.544 29.2755 161.523 29.2909 161.508C29.8734 160.915 29.7727 161.012 30.2035 160.044C31.0112 158.228 31.8105 156.408 32.6133 154.589C32.658 154.487 32.7035 154.384 32.7496 154.282C32.8042 154.161 32.8405 154.018 32.9797 153.969C33.151 153.908 33.3322 153.905 33.5049 153.965C33.5622 153.985 33.6238 154.036 33.651 154.089C33.744 154.266 33.8252 154.451 33.907 154.635C34.7294 156.494 35.5552 158.351 36.3685 160.213C36.5671 160.668 36.7874 161.1 37.151 161.447C37.2112 161.504 37.2461 161.594 37.2762 161.674C37.2867 161.702 37.2538 161.76 37.2245 161.783C37.193 161.809 37.1426 161.82 37.1 161.82C36.2503 161.821 35.4007 161.82 34.5503 161.818C34.5287 161.818 34.507 161.806 34.4853 161.804C34.4063 161.793 34.3363 161.662 34.3818 161.598C34.4979 161.434 34.6196 161.275 34.7363 161.113C34.8056 161.016 34.8182 160.908 34.7881 160.795C34.7769 160.752 34.7685 160.707 34.7524 160.666C34.4622 159.902 34.6007 159.971 33.7713 159.969C33.2343 159.966 32.6979 159.973 32.1608 159.973C32.0077 159.973 31.9014 160.052 31.8524 160.185C31.7601 160.435 31.6301 160.673 31.6028 160.944L31.6021 160.943ZM33.2182 156.719C33.1923 156.745 33.1692 156.756 33.1608 156.775C32.8937 157.339 32.7007 157.931 32.4944 158.518C32.458 158.621 32.551 158.739 32.6727 158.74C33.0294 158.745 33.3853 158.747 33.7419 158.742C33.9091 158.74 33.9958 158.626 33.9426 158.48C33.7461 157.936 33.5468 157.393 33.3426 156.851C33.3231 156.799 33.2608 156.763 33.2189 156.719L33.2182 156.719Z" fill="#082784"/>
<path d="M85.3959 160.936C85.5778 161.195 85.7316 161.411 85.8833 161.63C85.9078 161.665 85.8498 161.792 85.8106 161.797C85.7442 161.807 85.6785 161.823 85.612 161.824C85.3211 161.827 85.0302 161.827 84.74 161.827C84.2701 161.827 83.8008 161.829 83.3309 161.823C83.2456 161.822 83.1575 161.796 83.0771 161.765C83.0526 161.756 83.0295 161.689 83.0379 161.656C83.0784 161.497 83.2064 161.395 83.3155 161.286C83.5575 161.044 83.7197 160.758 83.8554 160.447C84.454 159.076 85.0596 157.708 85.6631 156.338C85.9421 155.705 86.2218 155.071 86.5029 154.438C86.5575 154.316 86.6148 154.195 86.6799 154.078C86.7246 153.997 86.7987 153.943 86.8952 153.941C87.0288 153.939 87.1631 153.934 87.2945 153.952C87.354 153.959 87.4302 154.004 87.4575 154.054C87.5533 154.23 87.6351 154.415 87.7162 154.598C88.5393 156.457 89.361 158.316 90.1833 160.175C90.2288 160.277 90.2792 160.377 90.319 160.481C90.4316 160.777 90.5931 161.04 90.8176 161.267C90.9253 161.376 91.0092 161.509 91.1022 161.634C91.1288 161.669 91.0722 161.792 91.0295 161.799C90.9631 161.808 90.8973 161.824 90.8309 161.825C90.0484 161.826 89.2652 161.826 88.4827 161.825C88.4169 161.825 88.3505 161.806 88.2847 161.796C88.2365 161.788 88.1868 161.681 88.2008 161.635C88.2645 161.436 88.4288 161.309 88.5435 161.146C88.6267 161.027 88.6505 160.904 88.6085 160.766C88.6022 160.745 88.598 160.723 88.5903 160.702C88.5295 160.534 88.4715 160.365 88.405 160.199C88.3519 160.068 88.2631 159.975 88.1064 159.975C87.391 159.975 86.675 159.975 85.9596 159.976C85.8372 159.976 85.7435 160.041 85.698 160.152C85.598 160.399 85.5064 160.65 85.3973 160.937L85.3959 160.936ZM87.0323 156.692C86.9722 156.807 86.9113 156.9 86.8729 157.002C86.7064 157.439 86.5442 157.877 86.3841 158.317C86.2519 158.679 86.298 158.747 86.6875 158.751C86.9994 158.754 87.3113 158.745 87.6232 158.737C87.7323 158.734 87.812 158.602 87.7715 158.489C87.575 157.945 87.3764 157.402 87.1729 156.86C87.1519 156.804 87.0924 156.762 87.0323 156.692Z" fill="#082784"/>
<path d="M48.4895 153.996C48.751 153.909 48.9475 153.912 49.1475 153.972C49.3014 154.084 49.3405 154.265 49.4119 154.425C50.1196 156.017 50.8244 157.611 51.53 159.204C51.7203 159.634 51.9133 160.061 52.0958 160.493C52.2189 160.784 52.3748 161.05 52.6014 161.275C52.6958 161.369 52.7734 161.479 52.8552 161.585C52.9021 161.645 52.8482 161.792 52.7783 161.802C52.7119 161.81 52.6454 161.825 52.579 161.825C51.7958 161.827 51.0133 161.827 50.23 161.825C50.1636 161.825 50.0979 161.806 50.0314 161.796C49.9937 161.79 49.944 161.657 49.9685 161.622C50.058 161.495 50.1503 161.369 50.2398 161.243C50.3042 161.153 50.3664 161.061 50.4251 160.977C50.3846 160.669 50.2594 160.406 50.151 160.138C50.1161 160.052 50.0433 159.998 49.9482 159.983C49.9042 159.976 49.8594 159.97 49.8154 159.97C49.1224 159.971 48.4286 159.973 47.7356 159.977C47.6923 159.977 47.6496 159.997 47.586 160.013C47.5559 160.05 47.5 160.094 47.4769 160.151C47.3853 160.379 47.2986 160.608 47.2224 160.842C47.1951 160.926 47.2238 161.016 47.2748 161.096C47.3951 161.283 47.5776 161.424 47.6664 161.634C47.6874 161.684 47.6412 161.782 47.586 161.794C47.5643 161.799 47.5447 161.814 47.5231 161.816C47.4566 161.822 47.3895 161.827 47.3224 161.827C46.6063 161.827 45.8909 161.828 45.1748 161.827C45.0867 161.827 44.9979 161.811 44.9098 161.8C44.8286 161.79 44.7839 161.657 44.8384 161.585C44.8923 161.515 44.9412 161.438 45.0056 161.377C45.3189 161.077 45.5161 160.711 45.6881 160.316C46.5265 158.391 47.379 156.472 48.2279 154.551C48.3091 154.367 48.3979 154.187 48.4874 153.996H48.4895ZM48.7825 156.715C48.5175 157.321 48.3014 157.923 48.0923 158.529C48.0636 158.611 48.1307 158.726 48.2112 158.727C48.6091 158.731 49.007 158.731 49.4049 158.727C49.4867 158.727 49.5622 158.615 49.5461 158.537C49.5419 158.515 49.5461 158.491 49.5384 158.471C49.344 157.929 49.151 157.386 48.9496 156.847C48.9307 156.797 48.8538 156.769 48.7825 156.714V156.715Z" fill="#082784"/>
<path d="M101.014 28.2098C100.493 29.1172 100.353 29.3081 99.9976 29.6129C99.6542 29.9072 99.2661 30.1274 98.8437 30.2805C98.4689 30.4161 98.0892 30.5482 97.6766 30.5531C97.6724 30.4951 97.6549 30.4489 97.6703 30.4245C97.9983 29.919 98.1115 29.3521 98.1213 28.7656C98.1311 28.1854 98.1164 27.6045 98.0864 27.0249C98.0654 26.6209 98.0668 26.2196 98.1325 25.8226C98.2612 25.0459 98.6038 24.386 99.2367 23.8932C99.3633 23.7946 99.4997 23.7282 99.6654 23.7296C100.067 23.7331 100.47 23.731 100.872 23.7352C101.004 23.7366 101.086 23.8023 101.121 23.9162C101.135 23.9589 101.152 24.0008 101.16 24.0442C101.328 24.9334 101.694 25.745 102.128 26.5293C102.758 27.6674 103.528 28.7069 104.369 29.6967C104.484 29.8324 104.591 29.975 104.692 30.1204C104.705 30.1385 104.671 30.1959 104.65 30.2294C104.641 30.2441 104.61 30.2539 104.59 30.2532C104.232 30.2357 103.879 30.1896 103.533 30.0917C102.665 29.8456 101.96 29.3605 101.409 28.6496C101.327 28.544 101.258 28.4273 101.173 28.3238C101.133 28.2756 101.068 28.2476 101.014 28.2091V28.2098Z" fill="#082784"/>
<path d="M81.7562 160.87C81.9416 161.118 82.1283 161.368 82.3136 161.618C82.345 161.661 82.3031 161.775 82.2562 161.787C82.2346 161.792 82.215 161.804 82.1933 161.809C82.1723 161.815 82.1499 161.82 82.1276 161.82C81.2562 161.818 80.3842 161.817 79.5129 161.814C79.4562 161.814 79.3569 161.739 79.3625 161.704C79.3695 161.66 79.3723 161.613 79.3926 161.576C79.4241 161.518 79.4653 161.464 79.5073 161.412C79.6192 161.273 79.7339 161.136 79.8472 160.998C79.9353 160.89 79.98 160.767 79.9793 160.628C79.9793 160.516 79.9821 160.405 79.9821 160.293C79.9821 158.729 79.9821 157.166 79.9821 155.602C79.9821 155.49 79.9772 155.379 79.98 155.267C79.9835 155.126 79.9353 155.004 79.8506 154.896C79.6996 154.703 79.5416 154.514 79.3926 154.319C79.3695 154.289 79.3758 154.236 79.373 154.193C79.3695 154.141 79.4381 154.093 79.5192 154.088C79.5863 154.085 79.6534 154.08 79.7199 154.08C80.2115 154.079 80.7038 154.077 81.1954 154.079C81.5304 154.08 81.8653 154.087 82.2003 154.093C82.2905 154.095 82.3499 154.217 82.301 154.29C82.2513 154.364 82.2122 154.45 82.1478 154.507C81.7849 154.833 81.7031 155.235 81.7115 155.711C81.7367 157.207 81.7199 158.703 81.722 160.2C81.722 160.422 81.7003 160.647 81.7562 160.87V160.87Z" fill="#082784"/>
<path d="M30.0146 124.609C30.1384 124.592 30.2258 124.57 30.3132 124.57C31.767 124.567 33.2209 124.567 34.6747 124.568C34.7188 124.568 34.7628 124.581 34.8069 124.584C34.8635 124.586 34.8929 124.614 34.8894 124.67C34.888 124.69 34.8852 124.716 34.8726 124.728C34.7894 124.801 34.7083 124.878 34.6181 124.942C32.8349 126.215 31.0509 127.487 29.2663 128.758C29.2118 128.797 29.1537 128.832 29.102 128.874C28.9733 128.976 28.8279 129.018 28.6649 129.01C28.5537 129.004 28.4419 129.002 28.33 128.996C28.2663 128.993 28.2111 128.913 28.2321 128.856C28.2621 128.772 28.2908 128.687 28.3251 128.605C28.8321 127.388 29.3391 126.171 29.8475 124.955C29.8901 124.853 29.944 124.754 30.0139 124.609L30.0146 124.609Z" fill="#082784"/>
</g>
<defs>
<clipPath id="clip0_250_5518">
<rect width="120" height="162" fill="white"/>
</clipPath>
</defs>
</svg>
