<svg width="120" height="38" viewBox="0 0 120 38" fill="none" xmlns="http://www.w3.org/2000/svg">
<g clip-path="url(#clip0_250_5519)">
<path d="M0.000699301 32.7745C0.30979 32.7025 0.623776 32.7242 0.936364 32.7242C5.02937 32.7228 9.12168 32.7235 13.2147 32.7235C17.0839 32.7235 20.9531 32.7235 24.8217 32.7249C25.0664 32.7249 25.3119 32.741 25.5566 32.755C25.6364 32.7592 25.7217 32.8549 25.7294 32.9346C25.7364 33.001 25.7448 33.0681 25.7455 33.1345C25.7469 33.6931 25.7469 34.2516 25.7455 34.8102C25.7455 34.8766 25.7364 34.9437 25.7308 35.0101C25.7231 35.0933 25.642 35.1786 25.5601 35.1884C25.4937 35.1968 25.4273 35.208 25.3608 35.2093C25.1818 35.2128 25.0028 35.2128 24.8238 35.2128C16.8622 35.2128 8.9 35.2128 0.938462 35.2121C0.625874 35.2121 0.312587 35.1968 0 35.1891C0 34.3845 0 33.5798 0 32.7752L0.000699301 32.7745Z" fill="#ffffff"/>
<path d="M120.001 35.1891C119.777 35.1975 119.554 35.2121 119.331 35.2121C111.368 35.2135 103.405 35.2135 95.4425 35.2121C95.2194 35.2121 94.9963 35.1996 94.7733 35.1891C94.6935 35.1856 94.6152 35.0954 94.6068 35.0087C94.5984 34.9199 94.5865 34.8312 94.5865 34.7424C94.5844 34.2286 94.5844 33.7141 94.5865 33.2002C94.5865 33.1115 94.5998 33.0227 94.6089 32.9339C94.6173 32.8521 94.7012 32.7626 94.7781 32.7536C94.867 32.7431 94.9551 32.7298 95.0446 32.7277C95.2236 32.7228 95.4026 32.7242 95.5816 32.7242C103.433 32.7242 111.284 32.7242 119.135 32.7256C119.424 32.7256 119.717 32.6878 120.001 32.7752V35.1891H120.001Z" fill="#ffffff"/>
<path d="M116.011 16.9059C116.025 18.3033 115.757 19.7161 115.165 21.0674C114.269 23.115 112.225 25.5302 109.288 26.5222C108.524 26.7801 107.741 26.9402 106.937 27.029C105.997 27.1332 105.061 27.1101 104.129 26.9891C102.991 26.8409 101.908 26.5082 100.883 25.9818C98.8498 24.9381 96.7708 22.7948 95.9261 20.1538C95.6323 19.2345 95.4575 18.2949 95.4331 17.3281C95.4093 16.4103 95.4477 15.4987 95.6372 14.5969C96.0337 12.7109 96.9198 11.0863 98.2463 9.69652C99.6932 8.18027 101.446 7.21277 103.505 6.8143C104.052 6.70805 104.606 6.62695 105.168 6.62695C105.927 6.62765 106.683 6.62486 107.441 6.73601C109.326 7.01214 110.997 7.74754 112.437 8.99327C113.958 10.3103 115.053 11.9111 115.618 13.8566C115.9 14.8297 116.018 15.8224 116.012 16.9059H116.011ZM105.66 22.8633C106.402 22.8927 107.129 22.7794 107.824 22.5117C109.443 21.8895 110.516 20.7228 111.151 19.1303C111.325 18.6927 111.42 18.2334 111.483 17.7679C111.637 16.6403 111.551 15.5295 111.125 14.4746C110.392 12.6626 109.094 11.4581 107.165 10.994C106.42 10.815 105.665 10.7926 104.902 10.8821C104.018 10.9856 103.203 11.2624 102.47 11.7629C101.342 12.5333 100.574 13.5763 100.16 14.878C100.046 15.2401 99.9827 15.6148 99.9324 15.9915C99.7883 17.0758 99.8897 18.1398 100.287 19.1534C100.969 20.8948 102.178 22.1055 104.002 22.6438C104.541 22.8025 105.092 22.8822 105.661 22.8626L105.66 22.8633Z" fill="#ffffff"/>
<path d="M9.03452 7.04359C10.287 7.04359 11.5394 7.038 12.7919 7.04569C13.8499 7.05198 14.8835 7.21626 15.8856 7.56369C16.717 7.8524 17.4772 8.27114 18.1618 8.8234C19.1912 9.65388 19.8534 10.7144 20.1359 12.0062C20.3779 13.1135 20.3779 14.2236 20.1345 15.3302C19.8506 16.62 19.187 17.6826 18.1674 18.52C17.2716 19.2555 16.252 19.7483 15.1275 20.0216C14.3646 20.2069 13.5905 20.3082 12.8031 20.2999C12.1772 20.2936 11.5506 20.2978 10.924 20.3006C10.8128 20.3006 10.701 20.3124 10.5919 20.3327C10.5555 20.3397 10.5177 20.3844 10.4975 20.4215C10.4772 20.4585 10.4695 20.5075 10.4688 20.5515C10.466 21.691 10.466 22.8304 10.4618 23.9706C10.4618 24.1377 10.5275 24.2719 10.631 24.3949C10.9891 24.8235 11.3471 25.2527 11.7038 25.6833C11.8317 25.8378 11.9597 25.9937 12.08 26.1552C12.1184 26.2069 12.1366 26.2754 12.1562 26.3383C12.1989 26.4726 12.1017 26.6207 11.9632 26.6277C11.7625 26.6375 11.5611 26.6445 11.3604 26.6445C9.68278 26.6459 8.00585 26.6452 6.32823 26.6452C5.81355 26.6452 5.29956 26.6466 4.78487 26.6424C4.67439 26.6417 4.5625 26.6277 4.45341 26.6075C4.38278 26.5942 4.33872 26.5306 4.33942 26.4635C4.33942 26.3775 4.34082 26.2761 4.38348 26.2076C4.47718 26.0566 4.59327 25.9189 4.70725 25.7812C5.07718 25.3331 5.44641 24.8843 5.82404 24.4425C5.97718 24.2628 6.0562 24.0678 6.03942 23.8308C6.03033 23.6973 6.03802 23.5631 6.03802 23.4288C6.03802 19.0492 6.04012 14.6689 6.03592 10.2893C6.03522 9.35748 6.13243 9.65807 5.52963 8.91567C5.17718 8.48156 4.81704 8.05443 4.4597 7.62521C4.37019 7.51756 4.32264 7.39871 4.33103 7.25681C4.33662 7.15894 4.39676 7.06387 4.47369 7.06037C4.65201 7.05268 4.83103 7.04429 5.00935 7.04429C6.35131 7.04289 7.69327 7.04359 9.03522 7.04359H9.03452ZM10.4611 13.6882C10.4611 14.4257 10.4597 15.1625 10.4625 15.9C10.4625 16.0335 10.4737 16.1677 10.4926 16.2998C10.4975 16.3362 10.5429 16.3809 10.58 16.3949C10.6415 16.4173 10.7107 16.4264 10.7772 16.4264C11.4478 16.4271 12.1184 16.4271 12.7891 16.4236C13.173 16.4215 13.5415 16.3299 13.9059 16.2181C14.2506 16.1118 14.5674 15.9489 14.8569 15.7343C15.3254 15.3869 15.6156 14.9304 15.738 14.3565C15.838 13.8881 15.8338 13.4281 15.731 12.9618C15.5996 12.3648 15.2863 11.8965 14.7807 11.556C14.5387 11.3931 14.2786 11.2645 14.0017 11.1715C13.5541 11.0212 13.0961 10.9234 12.6226 10.9178C12.0191 10.9108 11.4156 10.9136 10.8114 10.915C10.745 10.915 10.6709 10.915 10.6142 10.9422C10.5618 10.9681 10.4996 11.0254 10.4898 11.0779C10.4653 11.2079 10.4611 11.3435 10.4611 11.477C10.459 12.2145 10.4597 12.9513 10.4597 13.6889L10.4611 13.6882Z" fill="#ffffff"/>
<path d="M33.8 24.5145C33.8 24.4607 33.8063 24.4362 33.7993 24.4159C33.5371 23.6805 33.2742 22.9458 33.0091 22.2111C32.9588 22.0713 32.8497 22 32.7042 21.9909C32.5707 21.9825 32.4364 21.9804 32.3021 21.9804C30.5588 21.9804 28.8147 21.979 27.0714 21.9811C26.8944 21.9811 26.7182 21.9993 26.5916 22.007C26.4315 22.0874 26.3951 22.1985 26.356 22.2999C26.1147 22.9248 25.8832 23.5526 25.6399 24.1768C25.5581 24.3859 25.5714 24.555 25.7273 24.7305C26.0532 25.0982 26.3637 25.4799 26.6783 25.8574C26.7644 25.9601 26.8567 26.0601 26.9217 26.1755C26.963 26.2475 26.9658 26.3446 26.9742 26.4313C26.9818 26.5124 26.8951 26.6172 26.8245 26.6214C26.6686 26.6312 26.5126 26.6438 26.3567 26.6438C24.2553 26.6452 22.1539 26.6452 20.0525 26.6438C19.8965 26.6438 19.7406 26.6305 19.5846 26.6194C19.5154 26.6145 19.4287 26.5054 19.4371 26.4229C19.4455 26.3362 19.4539 26.2412 19.4944 26.1678C19.5476 26.0727 19.6308 25.993 19.7056 25.9105C20.0497 25.5288 20.3902 25.1436 20.7427 24.7696C20.9909 24.5061 21.1825 24.216 21.3273 23.8818C22.0028 22.3257 22.6902 20.7745 23.3742 19.2219C25.1294 15.238 26.8853 11.2547 28.642 7.27149C28.7308 7.06946 28.8336 6.87372 28.9336 6.6675C29.4623 6.62136 29.9749 6.63954 30.4874 6.65142C30.5839 6.65352 30.6602 6.70246 30.7021 6.78634C30.7818 6.94573 30.8567 7.10791 30.9287 7.27149C33.3203 12.6822 35.7168 18.0915 38.0972 23.5071C38.3616 24.109 38.6777 24.6557 39.1462 25.1199C39.463 25.4337 39.749 25.7791 40.0476 26.1118C40.1259 26.1992 40.149 26.3069 40.1434 26.4229C40.1392 26.5089 40.0665 26.6165 39.9986 26.6214C39.8651 26.6312 39.7315 26.6431 39.5972 26.6438C37.3839 26.6452 35.1707 26.6452 32.9581 26.6438C32.8245 26.6438 32.6909 26.6298 32.5574 26.6187C32.4895 26.6131 32.4014 26.497 32.414 26.4201C32.4287 26.3341 32.4399 26.2391 32.4846 26.1685C32.5679 26.037 32.6714 25.9182 32.7707 25.798C33.0399 25.4701 33.3133 25.145 33.5818 24.8158C33.6658 24.713 33.7385 24.6019 33.8007 24.5152L33.8 24.5145ZM29.67 18.8325C29.67 18.836 29.67 18.8402 29.67 18.8437C30.2287 18.8437 30.7874 18.8451 31.3455 18.8423C31.4329 18.8423 31.5231 18.8276 31.607 18.8039C31.6364 18.7955 31.6742 18.7403 31.6721 18.7081C31.6679 18.6214 31.6567 18.5305 31.6273 18.4494C31.0588 16.8759 30.4874 15.303 29.9147 13.7308C29.8923 13.6686 29.8532 13.6127 29.8182 13.5553C29.807 13.5379 29.7825 13.5148 29.7672 13.5169C29.7322 13.5218 29.6839 13.5309 29.6686 13.556C29.6217 13.6308 29.5811 13.7119 29.5497 13.7951C28.9693 15.3407 28.3902 16.8864 27.8119 18.4327C27.7888 18.4949 27.7742 18.5613 27.7567 18.6256C27.7511 18.6466 27.7511 18.6696 27.7469 18.6913C27.7364 18.7444 27.8028 18.8318 27.8602 18.8318C28.463 18.8325 29.0665 18.8318 29.6693 18.8318L29.67 18.8325Z" fill="#ffffff"/>
<path d="M70.7268 24.5033C70.7268 24.4599 70.733 24.4355 70.7261 24.4159C70.4631 23.6805 70.1988 22.9458 69.9358 22.2104C69.8841 22.065 69.7736 22.0055 69.6309 21.9902C69.5645 21.9832 69.4967 21.9811 69.4302 21.9811C67.5519 21.9811 65.6736 21.9797 63.7953 21.9839C63.6652 21.9839 63.5358 22.023 63.396 22.0454C63.3149 22.2446 63.2365 22.4285 63.1652 22.6151C62.9582 23.1576 62.754 23.7008 62.5491 24.2439C62.489 24.4033 62.5093 24.548 62.6219 24.6815C62.9533 25.0744 63.2827 25.4687 63.6114 25.8644C63.6967 25.9671 63.7848 26.0692 63.8554 26.1817C63.9163 26.2789 63.9219 26.3942 63.8792 26.5033C63.8652 26.5396 63.8316 26.576 63.7974 26.5963C63.761 26.6179 63.7142 26.6277 63.6708 26.6319C63.582 26.6396 63.4925 26.6431 63.403 26.6431C61.2114 26.6431 59.0205 26.6431 56.8288 26.6431C56.7617 26.6431 56.6946 26.6389 56.6275 26.6375C56.3561 26.6319 56.3093 26.4229 56.396 26.2118C56.4288 26.1321 56.4918 26.0622 56.5512 25.9965C56.8953 25.6148 57.2323 25.2261 57.5911 24.8584C57.9086 24.5326 58.1302 24.1593 58.3128 23.7434C60.703 18.3054 63.1023 12.8716 65.5002 7.43714C65.6079 7.19247 65.7198 6.94921 65.8282 6.71013C65.9072 6.68566 65.9701 6.6507 66.0323 6.65C66.5435 6.64651 67.0568 6.60806 67.582 6.67937C67.689 6.90866 67.7967 7.12886 67.8953 7.35186C70.3149 12.8255 72.7351 18.2991 75.1477 23.7763C75.3302 24.1915 75.5533 24.5648 75.8701 24.8906C76.2282 25.259 76.5645 25.6483 76.9065 26.0314C76.9645 26.0964 77.0135 26.174 77.0498 26.253C77.1358 26.4376 77.0247 26.6228 76.8254 26.6333C76.6918 26.6403 76.5575 26.6431 76.4233 26.6431C74.2764 26.6431 72.1302 26.6438 69.9834 26.6424C69.8275 26.6424 69.6715 26.6291 69.5156 26.6193C69.4463 26.6151 69.3652 26.5054 69.3603 26.425C69.3526 26.309 69.3757 26.1992 69.4477 26.1104C69.7289 25.763 70.0184 25.4218 70.2981 25.0737C70.4505 24.8836 70.6323 24.713 70.7275 24.5019L70.7268 24.5033ZM66.6128 13.5085C66.5673 13.6063 66.5135 13.7042 66.475 13.807C65.8946 15.3526 65.3156 16.8989 64.7379 18.4466C64.7072 18.5284 64.6897 18.6179 64.6813 18.7046C64.6785 18.7374 64.7114 18.785 64.7421 18.8059C64.7757 18.829 64.8254 18.8388 64.868 18.8388C66.0526 18.8402 67.2365 18.8409 68.4212 18.8388C68.4638 18.8388 68.5135 18.8297 68.547 18.8066C68.5778 18.7857 68.6135 18.7374 68.6093 18.7067C68.5932 18.5976 68.5708 18.4879 68.533 18.3851C67.9932 16.8954 67.4512 15.4071 66.9072 13.9188C66.8617 13.7944 66.8037 13.6742 66.7407 13.5574C66.7268 13.5315 66.6694 13.5288 66.6121 13.5085H66.6128Z" fill="#ffffff"/>
<path d="M41.768 25.3317C41.7603 25.1918 41.7463 25.0583 41.7463 24.9255C41.7449 23.6525 41.7449 22.3788 41.7456 21.1058C41.7456 21.0164 41.7484 20.9276 41.7533 20.8381C41.7631 20.6514 41.9833 20.5424 42.1421 20.6508C42.2337 20.713 42.3204 20.785 42.4008 20.8612C43.3071 21.7182 44.3624 22.3306 45.5197 22.7815C46.0854 23.0024 46.6707 23.1429 47.2721 23.21C47.9491 23.2855 48.6106 23.1911 49.2547 22.98C49.5323 22.8891 49.7861 22.7472 50.0148 22.5627C50.3861 22.2628 50.5659 21.8699 50.5833 21.398C50.5931 21.1261 50.5449 20.8605 50.4512 20.6095C50.398 20.4676 50.3029 20.3341 50.2008 20.2187C49.7833 19.7448 49.2987 19.3561 48.7225 19.0842C48.0561 18.7696 47.3931 18.448 46.7288 18.1286C46.2861 17.916 45.8414 17.7063 45.4015 17.4875C44.8805 17.2282 44.3784 16.9346 43.9211 16.5731C43.6589 16.3655 43.4057 16.1446 43.1631 15.9146C42.4001 15.1918 42.0029 14.2893 41.8756 13.2575C41.8099 12.7248 41.7666 12.1949 41.8407 11.656C41.9372 10.9562 42.1652 10.3089 42.5505 9.72306C43.6078 8.11593 45.0561 7.08201 46.9756 6.74646C47.9987 6.5675 49.0204 6.59408 50.0463 6.71851C51.1421 6.85133 52.1882 7.15612 53.2008 7.58464C53.4057 7.67133 53.6043 7.77478 53.8029 7.87685C53.8854 7.91949 53.9351 7.99638 53.9421 8.09215C53.9498 8.2033 53.9554 8.31515 53.9561 8.42631C53.9631 9.65455 53.9694 10.8835 53.9742 12.1117C53.9742 12.2229 53.9673 12.3347 53.9624 12.4459C53.954 12.6207 53.7547 12.6661 53.598 12.5899C53.5204 12.5522 53.454 12.4843 53.3924 12.4207C52.4337 11.4393 51.2393 10.915 49.912 10.6871C49.2288 10.5696 48.5323 10.5647 47.8512 10.7668C47.4344 10.8905 47.0714 11.0974 46.7742 11.4155C46.5358 11.6706 46.4162 11.9691 46.4134 12.3243C46.4099 12.7458 46.5239 13.1093 46.8099 13.4288C47.0057 13.6476 47.2099 13.8517 47.461 14.0006C47.8449 14.2285 48.2267 14.4634 48.6239 14.6654C49.5393 15.1317 50.4631 15.5826 51.3854 16.0342C51.9484 16.3096 52.4966 16.6088 53.0043 16.9779C53.3854 17.2547 53.7351 17.5658 54.0519 17.9146C54.5127 18.4215 54.8239 19.0108 54.9889 19.6707C55.2316 20.6417 55.2372 21.6189 54.9812 22.5878C54.754 23.4477 54.3113 24.1908 53.6854 24.8234C52.7512 25.7679 51.6281 26.3893 50.3519 26.7326C49.133 27.0604 47.8924 27.1604 46.6316 27.0513C45.6903 26.9696 44.7749 26.7885 43.8889 26.4634C43.2575 26.2321 42.6575 25.9357 42.0917 25.5714C41.9805 25.4994 41.8784 25.4134 41.7673 25.331L41.768 25.3317Z" fill="#ffffff"/>
<path d="M80.2341 9.49519C79.8327 9.01004 79.4209 8.51161 79.0083 8.01248C78.8943 7.87477 78.7803 7.73705 78.6677 7.59864C78.5432 7.44554 78.5251 7.27847 78.6048 7.10021C78.7761 7.01422 78.9579 7.04498 79.1348 7.04428C80.0509 7.04148 80.9677 7.04289 81.8838 7.04289C83.1579 7.04289 84.432 7.04289 85.7062 7.04289C85.8845 7.04289 86.0635 7.04988 86.2418 7.05687C86.3146 7.05966 86.395 7.16522 86.3866 7.2547C86.3782 7.34138 86.3747 7.43995 86.332 7.51056C86.2516 7.64338 86.1474 7.76151 86.0474 7.88245C85.6488 8.3648 85.2495 8.84576 84.8488 9.32601C84.7446 9.45044 84.6845 9.58746 84.6894 9.75313C84.6943 9.90902 84.6887 10.0656 84.6887 10.2222C84.6887 14.13 84.6873 18.0384 84.6894 21.9461C84.6894 22.8416 84.5971 22.7906 85.5069 22.7913C87.0048 22.7934 88.502 22.7913 89.9999 22.7913C90.067 22.7913 90.1348 22.785 90.2013 22.792C90.5635 22.8304 90.832 22.7081 91.0747 22.4187C91.5761 21.8196 92.1153 21.252 92.6404 20.6724C92.7299 20.5732 92.8195 20.4711 92.9216 20.3865C93.0118 20.3117 93.13 20.3124 93.2397 20.3432C93.2775 20.3537 93.309 20.3935 93.3383 20.4243C93.353 20.439 93.3614 20.4641 93.3635 20.4858C93.3712 20.5746 93.3796 20.6634 93.3796 20.7528C93.3803 22.562 93.3803 24.3705 93.3796 26.1796C93.3796 26.2684 93.3698 26.3579 93.3614 26.4467C93.3551 26.5152 93.253 26.613 93.1817 26.6221C93.1153 26.6298 93.0488 26.6396 92.9824 26.641C92.8258 26.6445 92.6698 26.6445 92.5132 26.6445C88.132 26.6445 83.7516 26.6445 79.3705 26.6438C79.1474 26.6438 78.9244 26.6291 78.702 26.6172C78.63 26.6138 78.5509 26.5047 78.5635 26.4194C78.5768 26.3341 78.588 26.2383 78.6341 26.1691C78.732 26.0209 78.8495 25.8846 78.9635 25.7469C79.3195 25.317 79.6712 24.8829 80.0383 24.4613C80.2118 24.2621 80.2894 24.0482 80.2684 23.7875C80.2572 23.6546 80.267 23.5197 80.267 23.3855C80.267 19.0311 80.267 14.6759 80.2663 10.3215C80.2663 10.0544 80.2845 9.78599 80.2355 9.49519H80.2341Z" fill="#ffffff"/>
<path d="M75.8291 30.0838C76.5263 30.0769 77.1739 30.0727 77.8221 30.0873C77.8864 30.0887 77.9676 30.0992 77.9746 30.181C77.9802 30.2411 77.9676 30.3159 77.9347 30.3656C77.8361 30.5138 77.7312 30.6606 77.6137 30.7948C77.4417 30.9912 77.3753 31.2037 77.3927 31.4701C77.5095 33.231 77.613 34.9927 77.7214 36.7543C77.7242 36.7983 77.7389 36.8417 77.7529 36.9095C77.9158 37.1213 78.0941 37.3499 78.269 37.5813C78.3396 37.6749 78.2662 37.8092 78.1424 37.8175C78.0753 37.8224 78.0081 37.8266 77.9417 37.8266C77.7403 37.828 77.5389 37.8273 77.3382 37.8273C76.8459 37.8273 76.3543 37.8287 75.862 37.8252C75.7515 37.8245 75.6403 37.8064 75.5298 37.7945C75.4885 37.7903 75.4354 37.6624 75.462 37.626C75.5655 37.482 75.6606 37.3317 75.7767 37.1982C75.9305 37.0206 76.0116 36.8305 75.9955 36.59C75.9697 36.2111 75.9669 35.8308 75.948 35.4519C75.9137 34.7606 75.876 34.0685 75.8375 33.3771C75.8326 33.2883 75.8179 33.2003 75.8032 33.1129C75.8004 33.0961 75.7795 33.0709 75.7641 33.0695C75.7228 33.0653 75.6613 33.0548 75.6431 33.0758C75.5578 33.1772 75.4801 33.2862 75.4081 33.3974C74.9207 34.1468 74.4368 34.8983 73.9487 35.6463C73.8641 35.7763 73.7669 35.8993 73.669 36.0203C73.6081 36.0965 73.4291 36.0902 73.3648 36.0112C73.2808 35.9077 73.1976 35.8029 73.1249 35.691C72.6228 34.9248 72.1249 34.1559 71.6235 33.3897C71.5508 33.2785 71.4662 33.1751 71.3829 33.0702C71.3732 33.0583 71.3389 33.0591 71.3186 33.0646C71.3011 33.0688 71.2781 33.0856 71.2732 33.101C71.2536 33.1632 71.2277 33.2275 71.2256 33.2918C71.1892 34.4082 71.1564 35.5246 71.1214 36.641C71.1165 36.8046 71.1571 36.9493 71.2641 37.0744C71.3221 37.1422 71.3843 37.2087 71.4312 37.2842C71.5193 37.4261 71.7452 37.5379 71.6354 37.7309C71.5326 37.9112 71.3074 37.8189 71.1389 37.8224C70.5354 37.8336 69.9312 37.8273 69.3277 37.8266C69.2158 37.8266 69.1025 37.8322 68.9934 37.8133C68.9354 37.8036 68.8578 37.7581 68.8403 37.7099C68.8221 37.6603 68.8536 37.5799 68.8871 37.5281C68.9473 37.4352 69.0277 37.3548 69.0962 37.2667C69.192 37.1436 69.2857 37.0185 69.3843 36.8885C69.4298 36.2663 69.4816 35.6435 69.52 35.0199C69.5899 33.8825 69.6529 32.7452 69.7186 31.6078C69.72 31.5854 69.7186 31.5624 69.7242 31.5414C69.7962 31.2254 69.6725 30.9814 69.4578 30.7577C69.3193 30.6137 69.2025 30.4488 69.0829 30.2873C69.0627 30.26 69.0648 30.1999 69.0809 30.1663C69.0969 30.1342 69.1424 30.0992 69.1781 30.0964C69.6242 30.0559 70.9193 30.0755 71.3459 30.1272C71.4487 30.2754 71.5662 30.4362 71.6746 30.6033C72.1725 31.3722 72.6676 32.1433 73.1648 32.9123C73.2494 33.0437 73.3403 33.1709 73.4298 33.2988C73.4739 33.361 73.6116 33.3506 73.662 33.2793C73.7648 33.1332 73.8662 32.9863 73.9662 32.8374C74.4522 32.1139 74.9361 31.3897 75.4228 30.6662C75.5466 30.4823 75.6774 30.3026 75.8319 30.0817L75.8291 30.0838Z" fill="#ffffff"/>
<path d="M54.219 36.8459C54.2246 36.6844 54.2358 36.5292 54.2358 36.374C54.2372 34.7669 54.2365 33.1597 54.2358 31.5533C54.2358 31.4638 54.2316 31.3744 54.2344 31.2856C54.2407 31.1213 54.1882 30.9822 54.0848 30.855C53.9309 30.6648 53.784 30.4691 53.6358 30.274C53.6001 30.2272 53.6407 30.1202 53.6917 30.1105C53.7134 30.1063 53.7337 30.0937 53.7554 30.0909C53.7994 30.0853 53.8442 30.0818 53.8889 30.0818C54.8938 30.0818 55.8994 30.0825 56.9043 30.0839C57.4463 30.0839 57.9694 30.1915 58.4757 30.3789C58.8337 30.5117 59.1652 30.6942 59.4722 30.9207C60.2868 31.5225 60.7645 32.3307 60.898 33.3296C60.9659 33.8385 60.9519 34.3503 60.8407 34.8606C60.6561 35.705 60.2134 36.3775 59.5414 36.9088C59.005 37.3324 58.3917 37.596 57.7239 37.7176C57.3736 37.7812 57.0148 37.8176 56.6589 37.8239C55.7659 37.8385 54.8722 37.8288 53.9785 37.8288C53.9113 37.8288 53.8407 37.8358 53.7785 37.8169C53.7197 37.7987 53.661 37.7582 53.6211 37.7113C53.6036 37.6911 53.6225 37.6226 53.6449 37.5897C53.7204 37.4792 53.8036 37.3744 53.8861 37.2688C53.9952 37.1283 54.1057 36.9899 54.2176 36.8473L54.219 36.8459ZM55.9729 33.935C55.9729 34.4488 55.9722 34.9626 55.9729 35.4757C55.975 36.3831 55.9043 36.2936 56.8127 36.2859C56.9463 36.2845 57.082 36.2811 57.2141 36.2601C58.175 36.1091 58.9561 35.5303 59.1589 34.4139C59.2057 34.1538 59.212 33.8763 59.1771 33.6141C59.0638 32.7508 58.6169 32.1203 57.7917 31.7931C57.2624 31.5834 56.7092 31.5302 56.1463 31.6043C56.0945 31.6113 56.0239 31.6763 56.0099 31.7274C55.9806 31.8329 55.9757 31.9476 55.975 32.058C55.9722 32.6837 55.9736 33.3087 55.9736 33.9343L55.9729 33.935Z" fill="#ffffff"/>
<path d="M62.6813 36.827V36.3307C62.6813 34.7459 62.6813 33.1611 62.6813 31.5771C62.6813 31.51 62.6757 31.4428 62.6813 31.3764C62.703 31.1374 62.6058 30.9479 62.4568 30.769C62.3149 30.5991 62.1407 30.4495 62.0666 30.2321C62.0561 30.202 62.0862 30.1279 62.1107 30.1202C62.1946 30.0951 62.2848 30.0818 62.3729 30.0811C62.8645 30.0769 63.3554 30.0783 63.847 30.0783C64.8519 30.0783 65.8575 30.0769 66.8624 30.0797C67.0177 30.0797 67.1736 30.0958 67.3288 30.1069C67.4058 30.1125 67.4372 30.1762 67.4715 30.2314C67.4827 30.2489 67.4834 30.2747 67.4834 30.2964C67.4834 30.8759 67.4834 31.4554 67.482 32.035C67.482 32.1223 67.3603 32.1888 67.2855 32.1419C67.0785 32.0119 66.8708 31.8819 66.6694 31.742C66.4974 31.6225 66.3156 31.568 66.1051 31.5722C65.6358 31.5813 65.1673 31.5764 64.6981 31.5806C64.4743 31.5827 64.4253 31.7043 64.4232 31.8798C64.4183 32.2587 64.4211 32.6382 64.426 33.0178C64.4281 33.1646 64.5302 33.2646 64.6827 33.2674C65.0848 33.2744 65.4869 33.273 65.889 33.2758C66.0722 33.2772 66.2379 33.2122 66.4044 33.1451C66.5058 33.1045 66.6135 33.0772 66.7204 33.0584C66.7512 33.0528 66.7932 33.0926 66.8253 33.1171C66.8414 33.1297 66.8561 33.1555 66.8561 33.1751C66.8582 33.6652 66.8603 34.1552 66.8589 34.6459C66.8589 34.7193 66.733 34.8018 66.6652 34.7816C66.6225 34.769 66.5743 34.7662 66.5379 34.7438C66.2176 34.5523 65.868 34.5173 65.5044 34.5362C65.2149 34.5509 64.9246 34.5474 64.6344 34.5572C64.5274 34.5606 64.4281 34.6662 64.4274 34.7795C64.4239 35.2031 64.4232 35.6274 64.4274 36.051C64.4288 36.1992 64.5225 36.2803 64.6911 36.2845C64.9365 36.2908 65.1827 36.2915 65.4281 36.2915C65.7855 36.2915 66.1428 36.2894 66.5002 36.2887C66.64 36.2887 66.7603 36.2454 66.8631 36.1468C67.0239 35.9923 67.1883 35.8413 67.3561 35.6945C67.3869 35.668 67.4596 35.6407 67.4757 35.6547C67.5218 35.6959 67.5785 35.7582 67.5792 35.8134C67.5869 36.3936 67.5848 36.9731 67.5841 37.5533C67.5841 37.575 67.575 37.5967 67.5715 37.6183C67.561 37.6973 67.4736 37.7938 67.4016 37.8022C67.3135 37.812 67.2246 37.826 67.1358 37.826C65.5498 37.8274 63.9638 37.8274 62.3778 37.8246C62.2904 37.8246 62.2009 37.8071 62.1177 37.7812C62.0904 37.7728 62.0596 37.7064 62.0659 37.6736C62.0785 37.6113 62.1072 37.5463 62.1463 37.496C62.31 37.2842 62.4799 37.0773 62.6806 36.8277L62.6813 36.827Z" fill="#ffffff"/>
<path d="M43.0865 30.1853C43.9033 29.8532 43.8921 29.8161 43.8872 30.6445C43.8837 31.2247 43.883 31.8043 43.8768 32.3845C43.8768 32.4201 43.8446 32.4698 43.8138 32.4859C43.7816 32.5026 43.7187 32.5033 43.6928 32.4824C43.5886 32.3992 43.4949 32.3027 43.3956 32.2139C43.0726 31.9266 42.7005 31.7316 42.2803 31.6302C41.8614 31.5288 41.4355 31.5114 41.0208 31.6225C40.0879 31.8728 39.5369 32.504 39.3467 33.4338C39.2474 33.9182 39.2726 34.4132 39.4656 34.8822C39.7152 35.4869 40.1292 35.9294 40.7453 36.1776C40.9355 36.2545 41.1313 36.2873 41.3306 36.3062C42.1264 36.3838 42.8341 36.1832 43.4299 35.6337C43.5271 35.5442 43.6299 35.4589 43.7376 35.3827C43.7586 35.3681 43.8173 35.3988 43.8537 35.4177C43.867 35.4247 43.8712 35.4576 43.8712 35.4785C43.8726 36.2587 43.8747 37.0395 43.8733 37.8197C43.8733 37.9141 43.774 37.9728 43.6844 37.9357C43.5816 37.8931 43.4768 37.8532 43.3795 37.8001C43.211 37.7071 43.0481 37.7043 42.8663 37.7679C42.1096 38.0329 41.3369 38.0636 40.5572 37.8952C39.1278 37.5862 38.1747 36.7243 37.697 35.3548C37.3551 34.3733 37.3733 33.373 37.739 32.4027C38.2124 31.1465 39.1222 30.3327 40.4257 30.0126C41.1691 29.8301 41.932 29.8483 42.6782 30.0664C42.8061 30.1041 42.9341 30.1405 43.0865 30.1846V30.1853Z" fill="#ffffff"/>
<path d="M31.6031 36.9431C31.659 37.1486 31.831 37.2716 31.9443 37.4352C31.9821 37.4897 32.0191 37.5457 32.0548 37.6023C32.0954 37.6659 32.0254 37.8057 31.9478 37.8064C31.0765 37.8092 30.2052 37.8106 29.3345 37.8078C29.2982 37.8078 29.2513 37.7721 29.2275 37.74C29.1821 37.6785 29.2135 37.6169 29.252 37.5617C29.2646 37.5435 29.2765 37.5233 29.2919 37.5079C29.8744 36.9151 29.7737 37.0123 30.2045 36.0441C31.0122 34.2279 31.8115 32.4076 32.6142 30.5886C32.659 30.4865 32.7045 30.3845 32.7506 30.2824C32.8052 30.1615 32.8415 30.0182 32.9807 29.9692C33.152 29.9084 33.3331 29.9049 33.5059 29.9651C33.5632 29.9846 33.6247 30.0357 33.652 30.0888C33.745 30.2663 33.8261 30.4509 33.908 30.6348C34.7303 32.4936 35.5562 34.351 36.3695 36.2133C36.5681 36.6683 36.7884 37.0997 37.152 37.4471C37.2122 37.5044 37.2471 37.5939 37.2772 37.6743C37.2877 37.7015 37.2548 37.7596 37.2254 37.7833C37.194 37.8085 37.1436 37.8197 37.101 37.8197C36.2513 37.8211 35.4017 37.8197 34.5513 37.8183C34.5296 37.8183 34.508 37.8064 34.4863 37.8036C34.4073 37.7931 34.3373 37.6617 34.3828 37.5981C34.4989 37.4345 34.6205 37.2751 34.7373 37.1129C34.8066 37.0165 34.8191 36.9081 34.7891 36.7949C34.7779 36.7515 34.7695 36.7075 34.7534 36.6655C34.4632 35.9022 34.6017 35.9714 33.7723 35.9686C33.2352 35.9665 32.6989 35.9728 32.1618 35.9735C32.0087 35.9735 31.9024 36.0518 31.8534 36.1853C31.7611 36.4348 31.631 36.6732 31.6038 36.9438L31.6031 36.9431ZM33.2191 32.7194C33.1933 32.7445 33.1702 32.7564 33.1618 32.7753C32.8947 33.3394 32.7017 33.9308 32.4954 34.518C32.459 34.6215 32.552 34.7389 32.6737 34.7403C33.0303 34.7445 33.3863 34.7466 33.7429 34.7424C33.9101 34.7403 33.9968 34.6257 33.9436 34.4796C33.7471 33.9357 33.5478 33.3925 33.3436 32.8515C33.324 32.799 33.2618 32.7627 33.2198 32.7187L33.2191 32.7194Z" fill="#ffffff"/>
<path d="M85.3969 36.9361C85.5787 37.1947 85.7326 37.4114 85.8843 37.6296C85.9088 37.6645 85.8508 37.7917 85.8116 37.7973C85.7452 37.8071 85.6794 37.8232 85.613 37.8239C85.3221 37.8274 85.0312 37.8274 84.741 37.8274C84.271 37.8274 83.8018 37.8295 83.3319 37.8232C83.2466 37.8225 83.1585 37.7959 83.078 37.7652C83.0536 37.7561 83.0305 37.689 83.0389 37.6561C83.0794 37.4967 83.2074 37.3954 83.3165 37.2863C83.5585 37.0444 83.7207 36.7578 83.8564 36.4474C84.455 35.0759 85.0605 33.7078 85.664 32.3384C85.9431 31.705 86.2228 31.071 86.5039 30.4383C86.5585 30.316 86.6158 30.1951 86.6808 30.0776C86.7256 29.9965 86.7997 29.9427 86.8962 29.9406C87.0298 29.9385 87.164 29.9343 87.2955 29.9518C87.355 29.9595 87.4312 30.0035 87.4585 30.0538C87.5543 30.23 87.6361 30.4146 87.7172 30.5984C88.5403 32.4572 89.3619 34.316 90.1843 36.1748C90.2298 36.2769 90.2801 36.3768 90.32 36.481C90.4326 36.7774 90.5941 37.0395 90.8186 37.2667C90.9263 37.3765 91.0102 37.5093 91.1032 37.6337C91.1298 37.6694 91.0731 37.7924 91.0305 37.7987C90.964 37.8078 90.8983 37.8239 90.8319 37.8246C90.0494 37.826 89.2661 37.826 88.4836 37.8246C88.4179 37.8246 88.3515 37.8064 88.2857 37.7959C88.2375 37.7882 88.1878 37.6806 88.2018 37.6351C88.2654 37.4359 88.4298 37.3087 88.5445 37.1458C88.6277 37.027 88.6515 36.9039 88.6095 36.7662C88.6032 36.7445 88.599 36.7229 88.5913 36.7019C88.5305 36.5341 88.4724 36.3649 88.406 36.1993C88.3529 36.0678 88.264 35.9749 88.1074 35.9749C87.392 35.9749 86.6759 35.9749 85.9605 35.9763C85.8382 35.9763 85.7445 36.0406 85.699 36.1517C85.599 36.3992 85.5074 36.6502 85.3983 36.9375L85.3969 36.9361ZM87.0333 32.6921C86.9731 32.8067 86.9123 32.9004 86.8738 33.0018C86.7074 33.4387 86.5452 33.877 86.385 34.3167C86.2529 34.6788 86.299 34.7473 86.6885 34.7508C87.0004 34.7536 87.3123 34.7452 87.6242 34.7368C87.7333 34.734 87.813 34.6019 87.7724 34.4894C87.5759 33.9448 87.3773 33.4016 87.1738 32.8599C87.1529 32.804 87.0934 32.762 87.0333 32.6921Z" fill="#ffffff"/>
<path d="M48.4905 29.9958C48.752 29.9091 48.9485 29.9119 49.1485 29.972C49.3023 30.0839 49.3415 30.2649 49.4128 30.425C50.1205 32.0175 50.8254 33.6106 51.531 35.2045C51.7212 35.6337 51.9142 36.0609 52.0968 36.4929C52.2198 36.7844 52.3758 37.05 52.6023 37.2751C52.6968 37.3688 52.7744 37.4792 52.8562 37.5848C52.903 37.6449 52.8492 37.7924 52.7793 37.8015C52.7128 37.8099 52.6464 37.8246 52.58 37.8253C51.7968 37.8267 51.0142 37.8267 50.231 37.8246C50.1646 37.8246 50.0989 37.8064 50.0324 37.7959C49.9947 37.7896 49.945 37.6575 49.9695 37.6218C50.059 37.4946 50.1513 37.3695 50.2408 37.243C50.3051 37.1528 50.3674 37.0612 50.4261 36.9773C50.3856 36.669 50.2604 36.4062 50.152 36.1384C50.117 36.0525 50.0443 35.9979 49.9492 35.9833C49.9051 35.9763 49.8604 35.97 49.8163 35.97C49.1233 35.9714 48.4296 35.9728 47.7366 35.977C47.6933 35.977 47.6506 35.9965 47.587 36.0126C47.5569 36.0497 47.5009 36.0944 47.4779 36.151C47.3863 36.3789 47.2996 36.6082 47.2233 36.8417C47.1961 36.9263 47.2247 37.0165 47.2758 37.0962C47.3961 37.2835 47.5786 37.424 47.6674 37.6344C47.6884 37.6841 47.6422 37.7819 47.587 37.7938C47.5653 37.7987 47.5457 37.8141 47.524 37.8162C47.4576 37.8225 47.3905 37.8267 47.3233 37.8267C46.6072 37.8274 45.8919 37.8281 45.1758 37.8267C45.0877 37.8267 44.9989 37.8106 44.9107 37.8001C44.8296 37.7903 44.7849 37.6568 44.8394 37.5855C44.8933 37.5149 44.9422 37.438 45.0065 37.3772C45.3198 37.0773 45.517 36.711 45.6891 36.316C46.5275 34.3908 47.38 32.4719 48.2289 30.5509C48.31 30.367 48.3989 30.1873 48.4884 29.9958H48.4905ZM48.7835 32.7152C48.5184 33.3205 48.3023 33.9231 48.0933 34.5285C48.0646 34.611 48.1317 34.7263 48.2121 34.727C48.61 34.7305 49.0079 34.7305 49.4058 34.727C49.4877 34.727 49.5632 34.6152 49.5471 34.5369C49.5429 34.5152 49.5471 34.4915 49.5394 34.4712C49.345 33.9294 49.152 33.3862 48.9506 32.8473C48.9317 32.7969 48.8548 32.769 48.7835 32.7145V32.7152Z" fill="#ffffff"/>
<path d="M81.7572 36.8703C81.9425 37.1185 82.1292 37.3681 82.3146 37.6183C82.346 37.661 82.3041 37.7749 82.2572 37.7868C82.2355 37.7924 82.216 37.8036 82.1943 37.8092C82.1733 37.8148 82.1509 37.8197 82.1285 37.8197C81.2572 37.8183 80.3852 37.8169 79.5139 37.8141C79.4572 37.8141 79.3579 37.7386 79.3635 37.7036C79.3705 37.6603 79.3733 37.6134 79.3936 37.5764C79.4251 37.5177 79.4663 37.4638 79.5083 37.4121C79.6201 37.273 79.7348 37.136 79.8481 36.9976C79.9362 36.8899 79.981 36.7669 79.9803 36.6278C79.9803 36.5159 79.9831 36.4048 79.9831 36.2929C79.9831 34.7291 79.9831 33.166 79.9831 31.6022C79.9831 31.4904 79.9782 31.3785 79.981 31.2674C79.9845 31.1262 79.9362 31.0038 79.8516 30.8962C79.7006 30.7025 79.5425 30.5138 79.3936 30.3187C79.3705 30.2887 79.3768 30.2356 79.374 30.1929C79.3705 30.1412 79.439 30.0929 79.5202 30.0881C79.5873 30.0846 79.6544 30.0797 79.7208 30.0797C80.2125 30.079 80.7048 30.0769 81.1964 30.079C81.5313 30.0804 81.8663 30.0867 82.2013 30.0929C82.2915 30.095 82.3509 30.2167 82.302 30.2901C82.2523 30.3642 82.2132 30.4502 82.1488 30.5075C81.7859 30.8325 81.7041 31.2345 81.7125 31.7106C81.7376 33.2066 81.7208 34.7032 81.7229 36.1999C81.7229 36.4222 81.7013 36.6466 81.7572 36.8696V36.8703Z" fill="#ffffff"/>
<path d="M30.0156 0.608718C30.1393 0.59194 30.2267 0.570265 30.3142 0.569566C31.768 0.567469 33.2219 0.567468 34.6757 0.568167C34.7198 0.568167 34.7638 0.580756 34.8079 0.583552C34.8645 0.586349 34.8939 0.613611 34.8904 0.670235C34.889 0.689809 34.8862 0.716369 34.8736 0.727554C34.7904 0.800955 34.7093 0.877857 34.6191 0.94217C32.8358 2.21516 31.0519 3.48674 29.2673 4.75833C29.2128 4.79748 29.1547 4.83243 29.103 4.87368C28.9743 4.97644 28.8288 5.01838 28.6659 5.00999C28.5547 5.0044 28.4428 5.00161 28.3309 4.99601C28.2673 4.99252 28.2121 4.91283 28.233 4.8555C28.2631 4.77162 28.2918 4.68703 28.326 4.60454C28.833 3.38818 29.34 2.17111 29.8484 0.955448C29.8911 0.852687 29.9449 0.754123 30.0149 0.609417L30.0156 0.608718Z" fill="#ffffff"/>
</g>
<defs>
<clipPath id="clip0_250_5519">
<rect width="120.001" height="38" fill="white"/>
</clipPath>
</defs>
</svg>
